<?xml version="1.0" encoding="UTF-8"?>
<svg width="185" height="40" fill="none" version="1.1" viewBox="0 0 185 40" xmlns="http://www.w3.org/2000/svg">
 <defs>
  <mask id="mask412" maskUnits="userSpaceOnUse">
   <path d="m185 0h-185v39.404h185z" fill="#fff"/>
  </mask>
  <mask id="mask418" maskUnits="userSpaceOnUse">
   <path d="m185 0h-185v39.404h185z" fill="#fff"/>
  </mask>
  <mask id="mask424" maskUnits="userSpaceOnUse">
   <path d="m185 0h-185v39.404h185z" fill="#fff"/>
  </mask>
  <mask id="mask430" maskUnits="userSpaceOnUse">
   <path d="m185 0h-185v39.404h185z" fill="#fff"/>
  </mask>
  <mask id="mask436" maskUnits="userSpaceOnUse">
   <path d="m185 0h-185v39.404h185z" fill="#fff"/>
  </mask>
  <mask id="mask442" maskUnits="userSpaceOnUse">
   <path d="m185 0h-185v39.404h185z" fill="#fff"/>
  </mask>
  <mask id="mask448" maskUnits="userSpaceOnUse">
   <path d="m185 0h-185v39.404h185z" fill="#fff"/>
  </mask>
  <mask id="mask454" maskUnits="userSpaceOnUse">
   <path d="m185 0h-185v39.404h185z" fill="#fff"/>
  </mask>
  <mask id="mask460" maskUnits="userSpaceOnUse">
   <path d="m185 0h-185v39.404h185z" fill="#fff"/>
  </mask>
  <mask id="mask466" maskUnits="userSpaceOnUse">
   <path d="m185 0h-185v39.404h185z" fill="#fff"/>
  </mask>
  <mask id="mask472" maskUnits="userSpaceOnUse">
   <path d="m185 0h-185v39.404h185z" fill="#fff"/>
  </mask>
  <mask id="mask478" maskUnits="userSpaceOnUse">
   <path d="m185 0h-185v39.404h185z" fill="#fff"/>
  </mask>
  <mask id="mask484" maskUnits="userSpaceOnUse">
   <path d="m185 0h-185v39.404h185z" fill="#fff"/>
  </mask>
  <mask id="mask490" maskUnits="userSpaceOnUse">
   <path d="m185 0h-185v39.404h185z" fill="#fff"/>
  </mask>
  <mask id="mask496" maskUnits="userSpaceOnUse">
   <path d="m185 0h-185v39.404h185z" fill="#fff"/>
  </mask>
  <mask id="mask502" maskUnits="userSpaceOnUse">
   <path d="m185 0h-185v39.404h185z" fill="#fff"/>
  </mask>
  <mask id="mask508" maskUnits="userSpaceOnUse">
   <path d="m185 0h-185v39.404h185z" fill="#fff"/>
  </mask>
  <mask id="mask514" maskUnits="userSpaceOnUse">
   <path d="m185 0h-185v39.404h185z" fill="#fff"/>
  </mask>
  <mask id="mask520" maskUnits="userSpaceOnUse">
   <path d="m185 0h-185v39.404h185z" fill="#fff"/>
  </mask>
  <mask id="mask526" maskUnits="userSpaceOnUse">
   <path d="m185 0h-185v39.404h185z" fill="#fff"/>
  </mask>
  <mask id="mask532" maskUnits="userSpaceOnUse">
   <path d="m185 0h-185v39.404h185z" fill="#fff"/>
  </mask>
  <mask id="mask538" maskUnits="userSpaceOnUse">
   <path d="m185 0h-185v39.404h185z" fill="#fff"/>
  </mask>
  <mask id="mask544" maskUnits="userSpaceOnUse">
   <path d="m185 0h-185v39.404h185z" fill="#fff"/>
  </mask>
  <mask id="mask550" maskUnits="userSpaceOnUse">
   <path d="m185 0h-185v39.404h185z" fill="#fff"/>
  </mask>
  <mask id="mask556" maskUnits="userSpaceOnUse">
   <path d="m185 0h-185v39.404h185z" fill="#fff"/>
  </mask>
  <mask id="mask562" maskUnits="userSpaceOnUse">
   <path d="m185 0h-185v39.404h185z" fill="#fff"/>
  </mask>
  <mask id="mask568" maskUnits="userSpaceOnUse">
   <path d="m185 0h-185v39.404h185z" fill="#fff"/>
  </mask>
  <mask id="mask574" maskUnits="userSpaceOnUse">
   <path d="m185 0h-185v39.404h185z" fill="#fff"/>
  </mask>
  <mask id="mask580" maskUnits="userSpaceOnUse">
   <path d="m185 0h-185v39.404h185z" fill="#fff"/>
  </mask>
  <mask id="mask586" maskUnits="userSpaceOnUse">
   <path d="m185 0h-185v39.404h185z" fill="#fff"/>
  </mask>
  <mask id="mask592" maskUnits="userSpaceOnUse">
   <path d="m185 0h-185v39.404h185z" fill="#fff"/>
  </mask>
  <mask id="mask598" maskUnits="userSpaceOnUse">
   <path d="m185 0h-185v39.404h185z" fill="#fff"/>
  </mask>
  <mask id="mask604" maskUnits="userSpaceOnUse">
   <path d="m185 0h-185v39.404h185z" fill="#fff"/>
  </mask>
  <mask id="mask610" maskUnits="userSpaceOnUse">
   <path d="m185 0h-185v39.404h185z" fill="#fff"/>
  </mask>
  <mask id="mask616" maskUnits="userSpaceOnUse">
   <path d="m185 0h-185v39.404h185z" fill="#fff"/>
  </mask>
  <mask id="mask622" maskUnits="userSpaceOnUse">
   <path d="m185 0h-185v39.404h185z" fill="#fff"/>
  </mask>
  <mask id="mask628" maskUnits="userSpaceOnUse">
   <path d="m185 0h-185v39.404h185z" fill="#fff"/>
  </mask>
  <mask id="mask634" maskUnits="userSpaceOnUse">
   <path d="m185 0h-185v39.404h185z" fill="#fff"/>
  </mask>
 </defs>
 <path d="m58.123 0h-58.123v39.404h58.123z" fill="#034ea2" mask="url(#mask634)"/>
 <path d="m57.005 1.0818h-55.887v37.198h55.887z" fill="#034ea2" mask="url(#mask628)"/>
 <g fill="#fcee23">
  <path d="m27.872 9.1864 1.1781-0.86139 1.1782 0.86139-0.4471-1.3908 1.1982-0.85853h-1.4763l-0.453-1.408-0.4528 1.408h-1.4734l1.1953 0.85853z" mask="url(#mask622)"/>
  <path d="m21.769 10.823 1.1782-0.86136 1.1782 0.86136-0.4472-1.3908 1.1953-0.85853h-1.4762l-0.4501-1.408-0.4529 1.408h-1.4763l1.1982 0.85853z" mask="url(#mask616)"/>
  <path d="m18.481 11.633-0.4501 1.4108-1.4763-0.0028 1.1954 0.8585-0.4472 1.3908 1.1782-0.8585 1.181 0.8585-0.45-1.3908 1.1981-0.8585h-1.4762z" mask="url(#mask610)"/>
  <path d="m16.844 20.516 1.1783 0.8585-0.4472-1.3879 1.1953-0.8614h-1.4762l-0.4502-1.408-0.4528 1.4108-1.4763-0.0028 1.1982 0.8614-0.45 1.3879z" mask="url(#mask604)"/>
  <path d="m18.934 25.229-0.4529-1.408-0.4501 1.4109-1.4763-0.0029 1.1954 0.8586-0.4472 1.3908 1.1782-0.8614 1.181 0.8614-0.45-1.3908 1.1981-0.8586z" mask="url(#mask598)"/>
  <path d="m23.409 29.697-0.4528-1.408-0.4501 1.408h-1.4763l1.1954 0.8586-0.4472 1.3879 1.1782-0.8585 1.1781 0.8585-0.4472-1.3879 1.1983-0.8586z" mask="url(#mask592)"/>
  <path d="m29.503 31.314-0.453-1.408-0.45 1.4109-1.4762-0.0029 1.1953 0.8585-0.4472 1.3909 1.1811-0.8586 1.1781 0.8586-0.45-1.3909 1.1982-0.8585z" mask="url(#mask586)"/>
  <path d="m35.597 29.697-0.4501-1.408-0.4528 1.408h-1.4764l1.1983 0.8586-0.45 1.3879 1.1809-0.8585 1.1782 0.8585-0.45-1.3879 1.1982-0.8586z" mask="url(#mask580)"/>
  <path d="m40.072 25.229-0.4502-1.408-0.4529 1.4109-1.4763-0.0029 1.1983 0.8586-0.4501 1.3908 1.181-0.8614 1.1782 0.8614-0.4501-1.3908 1.1983-0.8586z" mask="url(#mask574)"/>
  <path d="m43.168 19.108h-1.4762l-0.4502-1.408-0.4529 1.4109-1.4762-0.0029 1.1982 0.8614-0.4472 1.388 1.1781-0.8614 1.1783 0.8614-0.4472-1.388z" mask="url(#mask568)"/>
  <path d="m38.44 15.27 1.1782-0.8586 1.181 0.8586-0.4501-1.388 1.1983-0.8586h-1.4762l-0.453-1.4079-0.4501 1.4109-1.4763-3e-3 1.1983 0.8586z" mask="url(#mask562)"/>
  <path d="m35.164 7.1658-0.4529 1.4109-1.4762-0.00286 1.1982 0.8614-0.4501 1.3879 1.181-0.86136 1.1781 0.86136-0.4471-1.3879 1.1982-0.8614h-1.4792z" mask="url(#mask556)"/>
 </g>
 <g fill="#d5d2b8">
  <path d="m65.121 15.07v-9.152h6.2865v1.5482h-4.4346v2.1664h3.8269v1.5482h-3.8269v3.8892z" mask="url(#mask550)"/>
  <path d="m77.292 15.07v-0.993c-0.2408 0.3548-0.559 0.6324-0.9545 0.8356-0.3928 0.2032-0.8113 0.3063-1.2471 0.3063-0.4356 0-0.8456-0.0973-1.2011-0.2949-0.3554-0.1946-0.6105-0.4693-0.7681-0.8241-0.1577-0.3549-0.2381-0.8442-0.2381-1.4681v-4.1954h1.7573v3.0478c0 0.9329 0.0316 1.5024 0.0975 1.7142 0.063 0.2089 0.1834 0.3777 0.3525 0.5008 0.1721 0.1231 0.387 0.1832 0.6508 0.1832 0.301 0 0.5705-0.0831 0.8054-0.2461 0.238-0.1632 0.4014-0.3692 0.4874-0.6125 0.0888-0.2432 0.1318-0.8385 0.1318-1.7886v-2.796h1.7573v6.6308z" mask="url(#mask544)"/>
  <path d="m86.786 15.07h-1.7573v-3.3855c0-0.7154-0.0372-1.179-0.1117-1.3879-0.0746-0.2089-0.1979-0.37492-0.367-0.48939-0.1692-0.11733-0.3727-0.17456-0.6106-0.17456-0.3039 0-0.5762 0.08298-0.8199 0.24897-0.2407 0.16598-0.407 0.38638-0.4958 0.66108-0.0889 0.2747-0.1347 0.7813-0.1347 1.5225v3.002h-1.7573v-6.6279h1.6311v0.973c0.579-0.74979 1.3101-1.1247 2.1901-1.1247 0.3869 0 0.7424 0.06868 1.0634 0.20892 0.3211 0.14022 0.5648 0.31765 0.7281 0.53515 0.1635 0.21749 0.2781 0.46074 0.3441 0.73548 0.063 0.27475 0.0975 0.66675 0.0975 1.179v4.121z" mask="url(#mask538)"/>
  <path d="m94.661 15.07h-1.631v-0.973c-0.2723 0.3778-0.5905 0.661-0.9603 0.847-0.3697 0.186-0.7424 0.2777-1.115 0.2777-0.7625 0-1.4162-0.3062-1.9608-0.9215s-0.8169-1.471-0.8169-2.5699 0.2637-1.9775 0.7939-2.5642c0.5304-0.5838 1.1983-0.87857 2.0066-0.87857 0.7425 0 1.3846 0.30907 1.9264 0.92436v-3.2968h1.7571zm-4.6897-3.4599c0 0.7069 0.0975 1.2191 0.2953 1.5368 0.2838 0.4579 0.6795 0.6868 1.1897 0.6868 0.4042 0 0.7481-0.1717 1.032-0.5151 0.2837-0.3434 0.4242-0.8557 0.4242-1.5396 0-0.7613-0.1376-1.3108-0.4128-1.6456-0.2752-0.33481-0.6278-0.50366-1.0578-0.50366s-0.7653 0.16599-1.0462 0.49506c-0.281 0.332-0.4214 0.8242-0.4214 1.4824z" mask="url(#mask532)"/>
  <path d="m100.24 12.961 1.752 0.2947c-0.227 0.6411-0.582 1.1304-1.067 1.4652-0.487 0.335-1.0948 0.5038-1.8229 0.5038-1.1552 0-2.0095-0.3778-2.5656-1.1305-0.4385-0.6038-0.6564-1.365-0.6564-2.2866 0-1.0988 0.2867-1.9602 0.8629-2.5812 0.5761-0.62101 1.3013-0.93294 2.1813-0.93294 0.989 0 1.7687 0.32624 2.3387 0.97586 0.571 0.6525 0.846 1.6484 0.82 2.9934h-4.4026c0.0114 0.5208 0.1547 0.9243 0.4242 1.2134 0.2723 0.2891 0.6076 0.4349 1.0147 0.4349 0.2752 0 0.5074-0.0743 0.6937-0.226 0.186-0.1516 0.33-0.3921 0.424-0.724zm0.1-1.7743c-0.011-0.5066-0.143-0.8929-0.3923-1.1591-0.2493-0.26323-0.5532-0.39774-0.9144-0.39774-0.3841 0-0.6994 0.14024-0.9517 0.41784-0.2494 0.2776-0.3726 0.6582-0.3698 1.1361h2.6262z" mask="url(#mask526)"/>
  <path d="m109.61 15.07h-1.631v-0.973c-0.272 0.3778-0.591 0.661-0.96 0.847-0.37 0.186-0.743 0.2777-1.116 0.2777-0.762 0-1.416-0.3062-1.96-0.9215-0.545-0.6153-0.817-1.471-0.817-2.5699s0.263-1.9775 0.794-2.5642c0.53-0.5838 1.198-0.87857 2.006-0.87857 0.743 0 1.385 0.30907 1.927 0.92436v-3.2968h1.757zm-4.69-3.4599c0 0.7069 0.098 1.2191 0.295 1.5368 0.284 0.4579 0.68 0.6868 1.19 0.6868 0.404 0 0.748-0.1717 1.032-0.5151s0.424-0.8557 0.424-1.5396c0-0.7613-0.137-1.3108-0.413-1.6456-0.275-0.33481-0.627-0.50366-1.057-0.50366s-0.766 0.16599-1.047 0.49506c-0.28 0.332-0.421 0.8242-0.421 1.4824z" mask="url(#mask520)"/>
  <path d="m114.83 15.07v-9.152h1.757v3.2968c0.542-0.61528 1.184-0.92435 1.927-0.92435 0.808 0 1.478 0.29191 2.006 0.87857 0.531 0.58381 0.795 1.4251 0.795 2.5183 0 1.0933-0.27 2.0033-0.812 2.6156-0.539 0.6125-1.195 0.9188-1.967 0.9188-0.378 0-0.754-0.0945-1.123-0.2833-0.37-0.189-0.688-0.4695-0.955-0.8386v0.973h-1.631zm1.746-3.4599c0 0.6868 0.109 1.1933 0.324 1.5224 0.303 0.4664 0.708 0.6983 1.212 0.6983 0.388 0 0.72-0.166 0.992-0.495 0.272-0.332 0.41-0.8529 0.41-1.5654 0-0.7585-0.138-1.3051-0.414-1.6399-0.274-0.33481-0.626-0.50365-1.056-0.50365-0.431 0-0.772 0.16312-1.053 0.48935-0.278 0.3263-0.418 0.8242-0.418 1.4881z" mask="url(#mask514)"/>
  <path d="m121.89 8.4392h1.868l1.589 4.7076 1.551-4.7076h1.82l-2.345 6.3818-0.418 1.1562c-0.155 0.3863-0.302 0.684-0.442 0.8871-0.14 0.2032-0.3 0.3692-0.481 0.4951s-0.404 0.2261-0.668 0.2976c-0.264 0.0716-0.564 0.1059-0.898 0.1059-0.332 0-0.667-0.0343-0.994-0.1059l-0.158-1.3736c0.276 0.0544 0.525 0.0801 0.746 0.0801 0.41 0 0.71-0.1202 0.906-0.3577 0.194-0.2404 0.346-0.5438 0.45-0.9158z" mask="url(#mask508)"/>
  <path d="m68.142 23.784v1.3994h-1.2011v2.6729c0 0.5409 0.0114 0.8557 0.0344 0.9472 0.023 0.0888 0.0746 0.1632 0.1577 0.2204 0.0802 0.0573 0.1806 0.0887 0.2981 0.0887 0.1634 0 0.3984-0.0572 0.7081-0.1688l0.149 1.3622c-0.4099 0.1746-0.8715 0.2633-1.3874 0.2633-0.3182 0-0.602-0.0543-0.8571-0.1603-0.2551-0.1059-0.4415-0.2432-0.559-0.412-0.1175-0.169-0.2007-0.3979-0.2465-0.684-0.0372-0.2032-0.0574-0.6153-0.0574-1.2364v-2.8903h-0.8055v-1.3995h0.8055v-1.3164l1.7629-1.0245v2.3409h1.2011z" mask="url(#mask502)"/>
  <path d="m71.115 21.263v3.3655c0.5676-0.661 1.2441-0.993 2.0324-0.993 0.4041 0 0.7682 0.0743 1.095 0.2261 0.3239 0.1488 0.5704 0.3405 0.7339 0.5752 0.1633 0.2347 0.2779 0.4922 0.3382 0.7755 0.0602 0.2833 0.0917 0.7212 0.0917 1.3165v3.8891h-1.7572v-3.5028c0-0.6954-0.0344-1.1361-0.1003-1.325-0.066-0.1889-0.1835-0.3349-0.3527-0.4465-0.1691-0.1115-0.3812-0.166-0.6334-0.166-0.2924 0-0.5533 0.0716-0.7826 0.2119-0.2293 0.1401-0.3956 0.3548-0.5046 0.6409-0.106 0.2862-0.1604 0.7069-0.1604 1.2649v3.3226h-1.7572v-9.1549z" mask="url(#mask496)"/>
  <path d="m81.033 28.306 1.7515 0.2948c-0.2264 0.6411-0.5818 1.1303-1.0664 1.4652-0.4872 0.3348-1.095 0.5036-1.8231 0.5036-1.1553 0-2.0094-0.3776-2.5655-1.1303-0.4387-0.6039-0.6564-1.3651-0.6564-2.2866 0-1.099 0.2865-1.9604 0.8627-2.5813 0.5762-0.6211 1.3015-0.933 2.1815-0.933 0.989 0 1.7687 0.3263 2.3391 0.9759 0.5705 0.6525 0.8457 1.6484 0.8199 2.9934h-4.4031c0.0114 0.5209 0.1548 0.9244 0.4243 1.2134 0.2723 0.2891 0.6077 0.435 1.0147 0.435 0.2753 0 0.5074-0.0744 0.6937-0.226 0.1864-0.1518 0.3297-0.3921 0.4243-0.7241zm0.1004-1.7743c-0.0115-0.5066-0.1434-0.8929-0.3927-1.159-0.2495-0.2633-0.5532-0.3978-0.9144-0.3978-0.3841 0-0.6995 0.1402-0.9517 0.4178-0.2495 0.2776-0.3728 0.6582-0.3698 1.1361h2.6257z" mask="url(#mask490)"/>
  <path d="m87.881 30.418v-9.1549h6.7995v1.5482h-4.9477v2.0291h4.6036v1.5425h-4.6036v2.4925h5.1226v1.5426z" mask="url(#mask484)"/>
  <path d="m100.78 30.418v-0.9931c-0.241 0.3548-0.559 0.6325-0.9543 0.8357-0.3927 0.2031-0.8113 0.3062-1.2469 0.3062-0.4358 0-0.8457-0.0973-1.2011-0.2948-0.3555-0.1946-0.6106-0.4693-0.7683-0.8241-0.1576-0.355-0.2379-0.8443-0.2379-1.4682v-4.1954h1.7572v3.0478c0 0.9329 0.0315 1.5025 0.0975 1.7142 0.0631 0.2118 0.1834 0.3778 0.3526 0.5009 0.1719 0.123 0.387 0.1831 0.6507 0.1831 0.3009 0 0.5704-0.083 0.8055-0.2461 0.238-0.1632 0.401-0.3692 0.487-0.6125 0.089-0.2431 0.132-0.8384 0.132-1.7885v-2.796h1.757v6.6308z" mask="url(#mask478)"/>
  <path d="m105.92 30.418h-1.757v-6.6307h1.631v0.9415c0.278-0.4465 0.53-0.7383 0.754-0.8814 0.223-0.1402 0.475-0.2119 0.759-0.2119 0.401 0 0.786 0.1117 1.158 0.332l-0.544 1.5311c-0.296-0.1918-0.571-0.2861-0.826-0.2861s-0.456 0.0685-0.625 0.2031c-0.172 0.1345-0.307 0.3806-0.404 0.7326-0.097 0.3548-0.146 1.096-0.146 2.2237v2.0489z" mask="url(#mask472)"/>
  <path d="m108.82 27.006c0-0.5838 0.143-1.1475 0.433-1.6913 0.286-0.5466 0.694-0.9615 1.224-1.2477 0.527-0.2862 1.115-0.4322 1.766-0.4322 1.006 0 1.828 0.3264 2.471 0.9759 0.642 0.6525 0.963 1.4739 0.963 2.4698 0 0.9958-0.324 1.8343-0.972 2.4954s-1.465 0.9902-2.448 0.9902c-0.608 0-1.19-0.1374-1.743-0.4121s-0.972-0.6782-1.261-1.2077c-0.287-0.5294-0.433-1.1762-0.433-1.9374zm1.8 0.0945c0 0.6582 0.158 1.1618 0.47 1.511 0.313 0.3492 0.7 0.5237 1.158 0.5237 0.459 0 0.843-0.1745 1.156-0.5237 0.309-0.3492 0.467-0.8586 0.467-1.5225 0-0.664-0.155-1.1475-0.467-1.4995-0.313-0.352-0.697-0.5237-1.156-0.5237-0.458 0-0.845 0.1745-1.158 0.5237-0.312 0.3491-0.47 0.8527-0.47 1.511z" mask="url(#mask466)"/>
  <path d="m117 23.784h1.64v0.973c0.212-0.332 0.501-0.6039 0.863-0.8128 0.36-0.2088 0.764-0.3119 1.206-0.3119 0.771 0 1.425 0.3005 1.963 0.9044 0.54 0.6037 0.806 1.4452 0.806 2.5212 0 1.0761-0.272 1.9689-0.814 2.5814-0.542 0.6151-1.198 0.9214-1.969 0.9214-0.368 0-0.7-0.0716-0.998-0.2174-0.298-0.146-0.61-0.395-0.94-0.7499v3.3397h-1.757v-9.1548zm1.737 3.2023c0 0.7441 0.149 1.2964 0.444 1.6513 0.296 0.3548 0.656 0.5323 1.08 0.5323 0.426 0 0.749-0.1631 1.022-0.4893 0.272-0.3263 0.407-0.8615 0.407-1.6084 0-0.6954-0.141-1.2106-0.419-1.5482-0.278-0.3377-0.625-0.5066-1.038-0.5066-0.412 0-0.785 0.166-1.069 0.4952-0.284 0.3318-0.424 0.8213-0.424 1.4709z" mask="url(#mask460)"/>
  <path d="m128.72 28.306 1.753 0.2948c-0.227 0.6411-0.583 1.1303-1.067 1.4652-0.488 0.3348-1.096 0.5036-1.823 0.5036-1.156 0-2.01-0.3776-2.566-1.1303-0.439-0.6039-0.657-1.3651-0.657-2.2866 0-1.099 0.287-1.9604 0.863-2.5813 0.576-0.6211 1.302-0.933 2.182-0.933 0.989 0 1.769 0.3263 2.339 0.9759 0.571 0.6525 0.845 1.6484 0.82 2.9934h-4.403c0.012 0.5209 0.154 0.9244 0.424 1.2134 0.272 0.2891 0.608 0.435 1.015 0.435 0.275 0 0.508-0.0744 0.694-0.226 0.186-0.1518 0.33-0.3921 0.424-0.7241zm0.101-1.7743c-0.011-0.5066-0.143-0.8929-0.393-1.159-0.249-0.2633-0.553-0.3978-0.914-0.3978-0.384 0-0.699 0.1402-0.951 0.4178-0.25 0.2776-0.374 0.6582-0.37 1.1361h2.625z" mask="url(#mask454)"/>
  <path d="m133.31 25.807-1.593-0.2861c0.18-0.6411 0.487-1.1161 0.926-1.4224 0.439-0.309 1.089-0.4607 1.952-0.4607 0.782 0 1.368 0.0916 1.752 0.2776 0.384 0.1861 0.653 0.4207 0.811 0.7069 0.157 0.2861 0.235 0.807 0.235 1.5711l-0.021 2.049c0 0.5838 0.029 1.0131 0.084 1.2907 0.057 0.2776 0.16 0.5724 0.315 0.89h-1.74c-0.046-0.1173-0.104-0.289-0.17-0.518-0.028-0.103-0.048-0.1716-0.062-0.206-0.302 0.2919-0.622 0.5093-0.963 0.6553-0.342 0.146-0.708 0.2176-1.096 0.2176-0.684 0-1.224-0.186-1.616-0.5552-0.393-0.3721-0.591-0.8386-0.591-1.4052 0-0.3749 0.089-0.7098 0.27-1.0016 0.18-0.2948 0.43-0.518 0.754-0.6755 0.323-0.1572 0.789-0.2918 1.399-0.4091 0.822-0.1546 1.39-0.2977 1.709-0.4322v-0.1745c0-0.3377-0.084-0.5782-0.25-0.7212-0.166-0.1431-0.482-0.2146-0.943-0.2146-0.313 0-0.556 0.0601-0.732 0.1832-0.174 0.1229-0.318 0.3376-0.424 0.6467zm2.351 1.4224c-0.226 0.0743-0.582 0.163-1.069 0.269-0.488 0.103-0.806 0.206-0.958 0.3061-0.228 0.1632-0.344 0.3692-0.344 0.6183 0 0.2489 0.092 0.4579 0.276 0.6381 0.184 0.1804 0.416 0.2691 0.699 0.2691 0.318 0 0.619-0.1031 0.906-0.312 0.212-0.1575 0.352-0.352 0.418-0.581 0.046-0.1488 0.07-0.4349 0.07-0.8556v-0.3492z" mask="url(#mask448)"/>
  <path d="m145.16 30.418h-1.758v-3.3855c0-0.7154-0.036-1.1791-0.112-1.3879-0.074-0.2089-0.197-0.3749-0.366-0.4894-0.169-0.1173-0.373-0.1746-0.611-0.1746-0.304 0-0.576 0.0831-0.82 0.2489-0.24 0.166-0.406 0.3864-0.496 0.6612-0.088 0.2747-0.134 0.7812-0.134 1.5225v3.002h-1.757v-6.6308h1.631v0.973c0.578-0.7497 1.31-1.1247 2.19-1.1247 0.387 0 0.743 0.0687 1.063 0.209 0.322 0.1402 0.565 0.3176 0.728 0.5322 0.164 0.2175 0.278 0.4636 0.344 0.7384 0.063 0.2747 0.098 0.6668 0.098 1.179v4.121z" mask="url(#mask442)"/>
  <path d="m150.5 21.263h1.851v4.9567c0 0.7869 0.023 1.2964 0.069 1.5311 0.081 0.3748 0.267 0.6753 0.565 0.9014s0.704 0.3406 1.224 0.3406c0.519 0 0.919-0.1059 1.189-0.3206 0.266-0.2146 0.428-0.4779 0.482-0.7899 0.054-0.3119 0.08-0.8299 0.08-1.5539v-5.0625h1.851v4.8078c0 1.0989-0.048 1.8745-0.148 2.3295s-0.284 0.8357-0.554 1.1476c-0.269 0.312-0.627 0.5609-1.077 0.7469s-1.038 0.2775-1.763 0.2775c-0.874 0-1.54-0.1001-1.992-0.3033-0.453-0.2003-0.812-0.4636-1.073-0.7869-0.264-0.3234-0.436-0.6612-0.518-1.016-0.12-0.5237-0.18-1.2992-0.18-2.3238v-4.8822z" mask="url(#mask436)"/>
  <path d="m165.79 30.418h-1.757v-3.3855c0-0.7154-0.037-1.1791-0.112-1.3879-0.074-0.2089-0.198-0.3749-0.367-0.4894-0.169-0.1173-0.372-0.1746-0.61-0.1746-0.304 0-0.576 0.0831-0.82 0.2489-0.241 0.166-0.407 0.3864-0.496 0.6612-0.089 0.2747-0.135 0.7812-0.135 1.5225v3.002h-1.756v-6.6308h1.63v0.973c0.579-0.7497 1.311-1.1247 2.19-1.1247 0.387 0 0.742 0.0687 1.064 0.209 0.32 0.1402 0.564 0.3176 0.728 0.5322 0.163 0.2175 0.278 0.4636 0.344 0.7384 0.063 0.2747 0.097 0.6668 0.097 1.179v4.121z" mask="url(#mask430)"/>
  <path d="m167.58 22.885v-1.6227h1.757v1.6227zm0 7.5293v-6.6307h1.757v6.6307z" mask="url(#mask424)"/>
  <path d="m170.73 27.006c0-0.5838 0.143-1.1475 0.432-1.6913 0.287-0.5466 0.695-0.9615 1.225-1.2477 0.527-0.2862 1.115-0.4322 1.765-0.4322 1.006 0 1.829 0.3264 2.471 0.9759 0.642 0.6525 0.964 1.4739 0.964 2.4698 0 0.9958-0.324 1.8343-0.972 2.4954s-1.465 0.9902-2.448 0.9902c-0.608 0-1.19-0.1374-1.744-0.4121-0.552-0.2747-0.971-0.6782-1.261-1.2077-0.286-0.5294-0.432-1.1762-0.432-1.9374zm1.799 0.0945c0 0.6582 0.158 1.1618 0.471 1.511s0.699 0.5237 1.158 0.5237c0.458 0 0.842-0.1745 1.156-0.5237 0.309-0.3492 0.466-0.8586 0.466-1.5225 0-0.664-0.154-1.1475-0.466-1.4995-0.31-0.3492-0.698-0.5237-1.156-0.5237-0.459 0-0.845 0.1745-1.158 0.5237-0.313 0.3491-0.471 0.8527-0.471 1.511z" mask="url(#mask418)"/>
  <path d="m185 30.418h-1.757v-3.3855c0-0.7154-0.038-1.1791-0.112-1.3879-0.074-0.2089-0.198-0.3749-0.366-0.4894-0.17-0.1173-0.374-0.1746-0.611-0.1746-0.304 0-0.576 0.0831-0.82 0.2489-0.241 0.166-0.408 0.3864-0.496 0.6612-0.09 0.2747-0.134 0.7812-0.134 1.5225v3.002h-1.758v-6.6308h1.632v0.973c0.578-0.7497 1.309-1.1247 2.189-1.1247 0.388 0 0.742 0.0687 1.064 0.209 0.32 0.1402 0.564 0.3176 0.728 0.5322 0.163 0.2175 0.278 0.4636 0.343 0.7384 0.064 0.2747 0.098 0.6668 0.098 1.179v4.121z" mask="url(#mask412)"/>
 </g>
</svg>
