<svg xmlns="http://www.w3.org/2000/svg" width="324.861" height="100" viewBox="0 0 324.861 100">
    <g id="Group_296" data-name="Group 296" transform="translate(-61.571 -34)">
      <g id="Group_31" data-name="Group 31" transform="translate(47.398 20.345)">
        <g id="star" transform="translate(279.777 13.656)">
          <path id="Path_15" data-name="Path 15" d="M340.388,112.446l-14.1-23.762H296.989L311.638,63.31,296.989,37.937h29.288l14.307-24.282,1.649,2.98,14.013,25.509h-4.538l-11.3-20.259-11.7,20.261H304.28L316.5,63.309,304.28,84.476h24.433l11.675,20.285Z" transform="translate(-296.989 -13.656)"/>
        </g>
        <g id="KD" transform="translate(14.173 14.142)">
          <g id="Group_15" data-name="Group 15" transform="translate(0.011)">
            <path id="Path_16" data-name="Path 16" d="M41.052,56.617,26.858,32.833,16.71,44.426V56.617H14.185V14.173H16.71V40.737L39.9,14.173h3.387L28.675,30.836l15.331,25.78Z" transform="translate(-14.185 -14.173)"/>
            <path id="Path_17" data-name="Path 17" d="M82.586,56.617,78.36,44.3H59.278L54.993,56.617H52.277L67.611,14.173h2.595L85.352,56.617ZM68.879,16.468l-8.87,25.784H77.7Z" transform="translate(-16.503 -14.173)"/>
            <path id="Path_18" data-name="Path 18" d="M96.855,54.321h26.258v2.3H94.2V54.2l26.505-37.664H95.59V14.173h27.77v2.416Z" transform="translate(-19.055 -14.173)"/>
            <path id="Path_19" data-name="Path 19" d="M133.174,56.617V14.173h25.468v2.3H135.774V33.193h17.372v2.35H135.774V54.321h24.079v2.3Z" transform="translate(-21.427 -14.173)"/>
            <path id="Path_20" data-name="Path 20" d="M195.5,56.617,183.6,37.6H171.889V56.617h-2.538V14.173H187.1c6.821,0,11.229,5.315,11.229,11.714S193.734,37.6,186.917,37.6h-.3l11.888,19.014Zm-8.579-40.082H171.889V35.246h15.028c5.367,0,8.694-4.228,8.694-9.359S192.284,16.535,186.917,16.535Z" transform="translate(-23.628 -14.173)"/>
            <path id="Path_21" data-name="Path 21" d="M236.07,56.617,211.2,18.523V56.617h-2.593V14.173h2.834l24.811,37.981L236.2,14.173h2.593V56.617Z" transform="translate(-26.018 -14.173)"/>
            <path id="Path_22" data-name="Path 22" d="M251.855,56.617V14.173h25.481v2.3H254.449V33.193h17.383v2.35H254.449V54.321h24.085v2.3Z" transform="translate(-28.649 -14.173)"/>
          </g>
          <g id="Group_16" data-name="Group 16" transform="translate(0 50.312)">
            <path id="Path_23" data-name="Path 23" d="M29.328,68.712H14.173v47.325H29.328c11.292,0,19.179-9.741,19.179-23.688C48.507,78.432,40.62,68.712,29.328,68.712ZM18.754,73.05H29.328c8.432,0,14.321,7.936,14.321,19.3,0,11.392-5.889,19.346-14.321,19.346H18.754Z" transform="translate(-14.173 -67.804)"/>
            <path id="Path_24" data-name="Path 24" d="M76.248,67.745c-11.287,0-19.17,10.118-19.17,24.606,0,14.447,7.883,24.535,19.17,24.535S95.417,106.8,95.417,92.351C95.417,77.863,87.534,67.745,76.248,67.745Zm0,44.805c-8.429,0-14.315-8.306-14.315-20.2,0-11.937,5.887-20.274,14.315-20.274,8.465,0,14.378,8.337,14.378,20.274C90.626,104.245,84.713,112.55,76.248,112.55Z" transform="translate(-16.784 -67.745)"/>
            <path id="Path_25" data-name="Path 25" d="M118.371,72.077a12.9,12.9,0,0,1,11.55,6.365l.549.85,3.629-2.745-.457-.729c-3.365-5.357-8.439-8.073-15.081-8.073-8.975,0-14.775,4.76-14.775,12.125,0,5.895,3.823,9.793,12.778,13.034,11.186,4.087,12.694,7.6,12.694,10.5,0,5.556-4.173,9.146-10.631,9.146-5.741,0-9.388-2.621-11.475-8.249l-.429-1.159-3.859,2.793.3.693c2.952,6.751,8.255,10.319,15.335,10.319,9.3,0,15.543-5.39,15.543-13.412,0-6.435-3.962-10.251-15.135-14.579-8.16-3.248-10.272-5.17-10.272-9.349C108.637,72.619,116.087,72.077,118.371,72.077Z" transform="translate(-19.571 -67.745)"/>
            <path id="Path_26" data-name="Path 26" d="M157.241,72.077A12.9,12.9,0,0,1,168.8,78.441l.548.852,3.631-2.746-.457-.729c-3.369-5.357-8.447-8.073-15.086-8.073-8.973,0-14.77,4.76-14.77,12.125,0,5.895,3.82,9.793,12.771,13.034,11.192,4.087,12.7,7.6,12.7,10.5,0,5.556-4.173,9.146-10.631,9.146-5.743,0-9.389-2.621-11.474-8.249l-.427-1.154-3.884,2.785.307.7c2.969,6.75,8.276,10.317,15.347,10.317,9.3,0,15.55-5.39,15.55-13.412,0-6.437-3.965-10.253-15.142-14.579-8.153-3.245-10.263-5.167-10.263-9.349C147.523,72.619,154.961,72.077,157.241,72.077Z" transform="translate(-21.936 -67.745)"/>
            <rect id="Rectangle_48" data-name="Rectangle 48" width="4.594" height="47.324" transform="translate(157.945 0.909)"/>
            <path id="Path_27" data-name="Path 27" d="M226.54,68.712l.062,38.443L201.479,68.712H197v47.324h4.656V77.464l25.181,38.573H231.2V68.712Z" transform="translate(-25.3 -67.804)"/>
          </g>
        </g>
      </g>
    </g>
  </svg>
  