<svg id="Layer_2" xmlns="http://www.w3.org/2000/svg" viewBox="0 0 89.49 95.85" width="90" height="96.39"><rect x="0.23" y="91" width="89.23" height="4.85" fill="currentColor"></rect><g style="transform: none; transform-origin: 44.865px 17.913px 0px;" transform-origin="44.86499831080437px 17.91295051574707px"><path d="M7.33,11.76v2.42a8,8,0,0,1,6.49-3,8.93,8.93,0,0,1,9.09,9.1V35.51H16.06V22.08a4.37,4.37,0,1,0-8.73,0V35.51H.48V11.76Z" transform="translate(-0.25 -0.33)" fill="currentColor"></path><path d="M49.67,11.21a12.32,12.32,0,0,1,12.7,12.47,12.32,12.32,0,0,1-12.7,12.47A12.31,12.31,0,0,1,37,23.68,12.31,12.31,0,0,1,49.67,11.21Zm0,18.18a5.71,5.71,0,0,0,0-11.42,5.57,5.57,0,0,0-5.58,5.71A5.58,5.58,0,0,0,49.67,29.39Z" transform="translate(-0.25 -0.33)" fill="currentColor"></path><path d="M76.36,11.16a11,11,0,0,1,6.58,2.2V.33h6.81V35.51H82.94V33.87a10.74,10.74,0,0,1-6.58,2.24c-6.39,0-11.24-5.39-11.24-12.47S70,11.16,76.36,11.16ZM72.25,23.59a5.32,5.32,0,1,0,10.6,0,5.31,5.31,0,1,0-10.6,0Z" transform="translate(-0.25 -0.33)" fill="currentColor"></path><path d="M33.74,35.51H26.88V11.75h6.86Z" transform="translate(-0.25 -0.33)" fill="currentColor"></path><rect x="26.63" width="6.86" height="6.86" fill="currentColor"></rect></g><g style="transform: none; transform-origin: 37.6042px 62.9px 0px;" transform-origin="37.60422086715698px 62.900001525878906px"><g><path d="M0.9,48.4c0.3,0,0.5-0.2,0.5-0.5c0-0.3-0.2-0.5-0.5-0.5s-0.5,0.2-0.5,0.5C0.4,48.2,0.6,48.4,0.9,48.4z"></path><path d="M0.9,48.5c-0.4,0-0.6-0.3-0.6-0.6c0-0.4,0.3-0.6,0.6-0.6s0.6,0.3,0.6,0.6S1.3,48.5,0.9,48.5z M0.9,47.5 c-0.2,0-0.4,0.2-0.4,0.4c0,0.2,0.2,0.4,0.4,0.4c0.2,0,0.4-0.2,0.4-0.4C1.4,47.6,1.2,47.5,0.9,47.5z"></path></g><g><rect x="0.5" y="49" width="0.8" height="4.7"></rect><path d="M1.4,53.9h-1v-4.9h1V53.9z M0.6,53.7h0.6v-4.5H0.6V53.7z"></path></g><g><path d="M6.2,53.8h0.8v-3c0-1.1-0.8-1.9-1.9-1.9c-1,0-1.5,0.6-1.7,0.9V49H2.6v4.7h0.8V51c0-0.8,0.6-1.4,1.5-1.4 c0.8,0,1.3,0.6,1.3,1.4V53.8z"></path><path d="M7,53.9h-1V51c0-0.7-0.5-1.3-1.2-1.3c-0.8,0-1.4,0.6-1.4,1.3v2.8h-1v-4.9h1v0.6c0.3-0.4,0.8-0.7,1.6-0.7c1.1,0,2,0.9,2,2 V53.9z M6.3,53.7h0.6v-2.9c0-1-0.8-1.8-1.8-1.8c-0.9,0-1.4,0.5-1.6,0.8l-0.2,0.3v-1H2.7v4.5h0.6V51c0-0.8,0.7-1.5,1.6-1.5 c0.8,0,1.4,0.6,1.4,1.5V53.7z"></path></g><g><path d="M10.4,51.2l-1.2-0.4c-0.3-0.1-0.5-0.3-0.5-0.6c0-0.4,0.4-0.6,0.9-0.6c0.6,0,0.9,0.2,1,0.6l0.7-0.1 c-0.1-0.7-0.7-1.1-1.7-1.1c-0.9,0-1.7,0.4-1.7,1.3c0,0.6,0.3,1,1,1.2l1.1,0.4c0.4,0.1,0.6,0.4,0.6,0.6c0,0.4-0.5,0.7-1,0.7 c-0.6,0-1-0.3-1.1-0.7l-0.7,0.1c0.1,0.7,0.8,1.2,1.8,1.2c1,0,1.8-0.5,1.8-1.4C11.5,51.9,11.2,51.5,10.4,51.2z"></path><path d="M9.8,54c-1,0-1.8-0.5-1.9-1.3l0-0.1l0.9-0.2l0,0.1c0.1,0.4,0.5,0.6,1,0.6c0.5,0,0.9-0.2,0.9-0.6c0-0.2-0.2-0.4-0.6-0.6 L9,51.6C8.3,51.3,8,50.9,8,50.3c0-0.9,0.7-1.4,1.8-1.4c1,0,1.6,0.5,1.8,1.2l0,0.1l-0.9,0.2l0-0.1c-0.1-0.3-0.4-0.5-0.9-0.5 c-0.5,0-0.8,0.2-0.8,0.5c0,0.2,0.1,0.4,0.4,0.5l1.2,0.4c0.8,0.3,1.1,0.7,1.1,1.4C11.6,53.4,10.9,54,9.8,54z M8,52.7 c0.2,0.7,0.8,1.1,1.7,1.1c0.8,0,1.7-0.3,1.7-1.3c0-0.6-0.3-0.9-1-1.2l-1.2-0.4c-0.4-0.1-0.6-0.4-0.6-0.6c0-0.4,0.4-0.7,1-0.7 c0.5,0,0.9,0.2,1.1,0.6l0.5-0.1c-0.2-0.6-0.7-1-1.6-1c-0.8,0-1.6,0.3-1.6,1.2c0,0.5,0.3,0.9,0.9,1.1l1.1,0.4 c0.5,0.2,0.7,0.4,0.7,0.7c0,0.5-0.5,0.8-1.1,0.8c-0.6,0-1.1-0.3-1.2-0.7L8,52.7z"></path></g><g><path d="M12.8,52.4c0,0.8,0.6,1.4,1.4,1.4h0.7V53h-0.6c-0.4,0-0.7-0.3-0.7-0.7v-2.6h1.3V49h-1.3v-0.9h-0.8V49h-0.8v0.7h0.8 L12.8,52.4L12.8,52.4z"></path><path d="M15,53.9h-0.8c-0.9,0-1.5-0.6-1.5-1.5v-2.6H12v-0.9h0.8V48h1v0.9H15v0.9h-1.3v2.5c0,0.4,0.2,0.6,0.6,0.6H15L15,53.9 L15,53.9z M12.2,49.6h0.8v2.8c0,0.7,0.6,1.3,1.3,1.3h0.6v-0.5h-0.5c-0.4,0-0.8-0.4-0.8-0.8v-2.7h1.3v-0.5h-1.3v-0.9h-0.6v0.9h-0.8 L12.2,49.6L12.2,49.6z"></path></g><g><rect x="15.9" y="49" width="0.8" height="4.7"></rect><path d="M16.7,53.9h-1v-4.9h1V53.9z M16,53.7h0.6v-4.5H16V53.7z"></path></g><g><path d="M16.3,48.4c0.3,0,0.5-0.2,0.5-0.5c0-0.3-0.2-0.5-0.5-0.5c-0.3,0-0.5,0.2-0.5,0.5C15.7,48.2,16,48.4,16.3,48.4z"></path><path d="M16.3,48.5c-0.4,0-0.6-0.3-0.6-0.6c0-0.4,0.3-0.6,0.6-0.6c0.4,0,0.6,0.3,0.6,0.6S16.6,48.5,16.3,48.5z M16.3,47.5 c-0.2,0-0.4,0.2-0.4,0.4c0,0.2,0.2,0.4,0.4,0.4c0.2,0,0.4-0.2,0.4-0.4C16.7,47.6,16.5,47.5,16.3,47.5z"></path></g><g><path d="M18.2,52.4c0,0.8,0.6,1.4,1.4,1.4h0.7V53h-0.6c-0.4,0-0.7-0.3-0.7-0.7v-2.6h1.3V49h-1.3v-0.9h-0.8V49h-0.8v0.7h0.8 L18.2,52.4L18.2,52.4z"></path><path d="M20.4,53.9h-0.8c-0.9,0-1.5-0.6-1.5-1.5v-2.6h-0.8v-0.9h0.8V48h1v0.9h1.3v0.9H19v2.5c0,0.4,0.2,0.6,0.6,0.6h0.7V53.9z M17.5,49.6h0.8v2.8c0,0.7,0.6,1.3,1.3,1.3h0.6v-0.5h-0.5c-0.4,0-0.8-0.4-0.8-0.8v-2.7h1.3v-0.5h-1.3v-0.9h-0.6v0.9h-0.8L17.5,49.6 L17.5,49.6z"></path></g><g><path d="M23.1,53.9c1,0,1.5-0.5,1.7-0.9v0.8h0.8V49h-0.8v2.7c0,0.8-0.6,1.4-1.5,1.4c-0.8,0-1.4-0.6-1.4-1.4V49h-0.8v3 C21.2,53.1,22,53.9,23.1,53.9z"></path><path d="M23.1,54c-1.1,0-2-0.9-2-2v-3h1v2.8c0,0.7,0.5,1.3,1.3,1.3c0.8,0,1.4-0.5,1.4-1.3v-2.8h1v4.9h-1v-0.6 C24.4,53.6,23.9,54,23.1,54z M21.3,49.1V52c0,1,0.8,1.8,1.8,1.8c0.9,0,1.4-0.5,1.6-0.8l0.2-0.3v1h0.6v-4.5h-0.6v2.6 c0,0.8-0.7,1.5-1.6,1.5c-0.8,0-1.5-0.6-1.5-1.5v-2.6L21.3,49.1L21.3,49.1z"></path></g><g><path d="M27.1,52.4c0,0.8,0.6,1.4,1.4,1.4h0.7V53h-0.6c-0.4,0-0.7-0.3-0.7-0.7v-2.6h1.3V49h-1.3v-0.9h-0.8V49h-0.8v0.7h0.8 L27.1,52.4L27.1,52.4z"></path><path d="M29.3,53.9h-0.8c-0.9,0-1.5-0.6-1.5-1.5v-2.6h-0.8v-0.9H27V48h1v0.9h1.3v0.9h-1.3v2.5c0,0.4,0.2,0.6,0.6,0.6h0.7L29.3,53.9 L29.3,53.9z M26.4,49.6h0.8v2.8c0,0.7,0.6,1.3,1.3,1.3h0.6v-0.5h-0.5c-0.4,0-0.8-0.4-0.8-0.8v-2.7h1.3v-0.5h-1.3v-0.9h-0.6v0.9 h-0.8L26.4,49.6L26.4,49.6z"></path></g><g><path d="M34.5,52.7l-0.7-0.2c-0.3,0.4-0.8,0.7-1.4,0.7c-0.9,0-1.6-0.6-1.7-1.5h4.1c0-0.1,0-0.2,0-0.3c0-1.4-1.1-2.5-2.4-2.5 c-1.4,0-2.4,1.1-2.4,2.5s1.1,2.5,2.5,2.5C33.3,53.9,34.1,53.4,34.5,52.7z M32.3,49.7c0.8,0,1.5,0.6,1.7,1.4h-3.3 C30.8,50.2,31.4,49.7,32.3,49.7z"></path><path d="M32.4,54c-1.5,0-2.6-1.1-2.6-2.6c0-1.5,1.1-2.6,2.5-2.6c1.4,0,2.5,1.1,2.5,2.6c0,0.1,0,0.2,0,0.2l0,0.1l-0.1,0h-4 c0.2,0.8,0.8,1.3,1.6,1.3c0.5,0,1-0.2,1.3-0.6l0-0.1l0.9,0.3l-0.1,0.1C34.1,53.5,33.3,54,32.4,54z M32.3,49c-1.3,0-2.3,1-2.3,2.4 s1,2.4,2.4,2.4c0.8,0,1.6-0.4,2-1l-0.6-0.2c-0.3,0.4-0.9,0.7-1.4,0.7c-1,0-1.7-0.6-1.8-1.6l0-0.1h4.1c0-0.1,0-0.1,0-0.2 C34.6,50.1,33.6,49,32.3,49z M34,51.2h-3.5l0-0.1c0.2-0.9,0.9-1.5,1.7-1.5c0.9,0,1.6,0.6,1.8,1.5L34,51.2z M30.8,51h3 c-0.2-0.7-0.8-1.2-1.5-1.2C31.5,49.8,30.9,50.2,30.8,51z"></path></g><g><path d="M38.5,53.8h0.8v-4.1h1.3V49h-1.3v-0.6c0-0.4,0.3-0.7,0.7-0.7h0.6v-0.7h-0.6c-0.8,0-1.4,0.6-1.4,1.4V49h-0.8v0.7h0.8 L38.5,53.8L38.5,53.8z"></path><path d="M39.3,53.9h-1v-4.1h-0.8v-0.9h0.8v-0.6c0-0.9,0.6-1.5,1.5-1.5h0.7v0.9h-0.7c-0.3,0-0.6,0.3-0.6,0.6v0.5h1.3v0.9h-1.3 L39.3,53.9L39.3,53.9z M38.6,53.7h0.6v-4.1h1.3v-0.5h-1.3v-0.7c0-0.5,0.3-0.8,0.8-0.8h0.5V47h-0.5c-0.7,0-1.3,0.6-1.3,1.3v0.8h-0.8 v0.5h0.8L38.6,53.7L38.6,53.7z"></path></g><g><path d="M43.4,53.9c1.4,0,2.5-1.1,2.5-2.5c0-1.4-1.1-2.5-2.5-2.5c-1.4,0-2.5,1.1-2.5,2.5C40.9,52.8,42,53.9,43.4,53.9z M43.4,49.7 c1,0,1.7,0.7,1.7,1.7s-0.7,1.7-1.7,1.7c-0.9,0-1.7-0.7-1.7-1.7S42.4,49.7,43.4,49.7z"></path><path d="M43.4,54c-1.5,0-2.6-1.1-2.6-2.6c0-1.5,1.1-2.6,2.6-2.6c1.5,0,2.6,1.1,2.6,2.6C46,52.9,44.9,54,43.4,54z M43.4,49 c-1.4,0-2.4,1-2.4,2.4s1,2.4,2.4,2.4c1.4,0,2.4-1,2.4-2.4S44.7,49,43.4,49z M43.4,53.2c-1,0-1.8-0.8-1.8-1.8s0.8-1.8,1.8-1.8 c1,0,1.8,0.8,1.8,1.8S44.4,53.2,43.4,53.2z M43.4,49.8c-0.9,0-1.6,0.7-1.6,1.6s0.7,1.6,1.6,1.6c0.9,0,1.6-0.7,1.6-1.6 S44.3,49.8,43.4,49.8z"></path></g><g><path d="M47.7,51.1c0-0.8,0.6-1.4,1.5-1.4c0.1,0,0.2,0,0.3,0.1v-0.8h-0.1c-1,0-1.5,0.6-1.7,0.9V49h-0.8v4.7h0.8V51.1z"></path><path d="M47.8,53.9h-1v-4.9h1v0.6c0.3-0.3,0.8-0.7,1.6-0.7h0.2v1.1l-0.1,0c-0.1,0-0.2,0-0.3,0c-0.8,0-1.4,0.6-1.4,1.3V53.9z M47,53.7h0.6v-2.6c0-0.8,0.7-1.5,1.6-1.5c0.1,0,0.2,0,0.2,0V49h0c-1,0-1.4,0.5-1.6,0.9l-0.2,0.3v-1.1H47V53.7z"></path></g><g><polygon points="58.4,49 57.2,52.6 56.1,49 55.4,49 54.2,52.6 53.1,49 52.3,49 53.9,53.8 54.6,53.8 55.7,50.3 56.9,53.8 57.5,53.8 59.2,49 	"></polygon><path d="M57.6,53.9h-0.8l-1.1-3.2l-1.1,3.2h-0.8l-1.7-4.9h1l1.1,3.3l1.1-3.3h0.8l1.1,3.3l1.1-3.3h1L57.6,53.9z M56.9,53.7h0.5 l1.6-4.5h-0.6l-1.2,3.8L56,49.1h-0.5l-1.2,3.8L53,49.1h-0.6l1.5,4.5h0.5l1.2-3.7L56.9,53.7z"></path></g><g><path d="M64.3,53.8V49h-0.8v0.7c-0.4-0.5-1-0.8-1.7-0.8c-1.3,0-2.3,1.1-2.3,2.5c0,1.4,1,2.5,2.3,2.5c0.7,0,1.3-0.3,1.7-0.8v0.7 L64.3,53.8L64.3,53.8z M61.9,53.1c-0.9,0-1.6-0.7-1.6-1.7s0.7-1.7,1.6-1.7c0.9,0,1.6,0.7,1.6,1.7C63.6,52.4,62.8,53.1,61.9,53.1z"></path><path d="M61.8,54c-1.4,0-2.4-1.1-2.4-2.6c0-1.5,1-2.6,2.4-2.6c0.6,0,1.2,0.2,1.6,0.6v-0.5h1v4.9h-1v-0.5C63,53.8,62.5,54,61.8,54z M61.8,49c-1.3,0-2.2,1-2.2,2.4s1,2.4,2.2,2.4c0.7,0,1.2-0.3,1.7-0.7l0.2-0.2v0.8h0.6v-4.5h-0.6V50l-0.2-0.2 C63.1,49.3,62.5,49,61.8,49z M61.9,53.2c-1,0-1.7-0.8-1.7-1.8s0.7-1.8,1.7-1.8c1,0,1.7,0.8,1.7,1.8S62.9,53.2,61.9,53.2z M61.9,49.8c-0.9,0-1.5,0.7-1.5,1.6s0.7,1.6,1.5,1.6c0.9,0,1.5-0.7,1.5-1.6S62.8,49.8,61.9,49.8z"></path></g><g><path d="M66.4,51.1c0-0.8,0.6-1.4,1.5-1.4c0.1,0,0.2,0,0.3,0.1v-0.8h-0.1c-1,0-1.5,0.6-1.7,0.9V49h-0.8v4.7h0.8V51.1z"></path><path d="M66.5,53.9h-1v-4.9h1v0.6c0.3-0.3,0.8-0.7,1.6-0.7h0.2v1.1l-0.1,0c-0.1,0-0.2,0-0.3,0c-0.8,0-1.4,0.6-1.4,1.3V53.9z M65.7,53.7h0.6v-2.6c0-0.8,0.7-1.5,1.6-1.5c0.1,0,0.2,0,0.2,0V49h0c-1,0-1.4,0.5-1.6,0.9l-0.2,0.3v-1.1h-0.6V53.7z"></path></g><g><path d="M68.7,53.9c0,0.4-0.5,0.8-0.5,0.8l0.3,0.3c0,0,0.9-0.5,0.9-1.4c0-0.5-0.3-0.8-0.6-0.8c-0.3,0-0.5,0.2-0.5,0.5 C68.2,53.6,68.4,53.8,68.7,53.9z"></path><path d="M68.5,55.1l-0.4-0.4l0.1-0.1c0.1-0.1,0.4-0.4,0.4-0.7c-0.3-0.1-0.5-0.3-0.5-0.6c0-0.4,0.3-0.6,0.6-0.6 c0.4,0,0.7,0.4,0.7,0.9C69.5,54.5,68.6,55,68.5,55.1L68.5,55.1z M68.4,54.7l0.1,0.1c0.2-0.1,0.8-0.6,0.8-1.3c0-0.4-0.2-0.7-0.5-0.7 c-0.3,0-0.4,0.2-0.4,0.4c0,0.2,0.2,0.4,0.4,0.5l0.1,0l0,0.1C68.8,54.2,68.5,54.5,68.4,54.7z"></path></g><g><path d="M4.9,65.3v-3c0-1.1-0.8-1.9-1.9-1.9c-1,0-1.5,0.6-1.7,0.9v-2.9H0.5v6.8h0.8v-2.7c0-0.8,0.6-1.4,1.5-1.4 c0.8,0,1.4,0.6,1.4,1.4v2.7L4.9,65.3L4.9,65.3z"></path><path d="M5,65.4h-1v-2.8c0-0.7-0.5-1.3-1.3-1.3c-0.8,0-1.4,0.6-1.4,1.3v2.8h-1v-7h1V61c0.3-0.4,0.8-0.7,1.6-0.7c1.2,0,2,0.9,2,2 C5,62.3,5,65.4,5,65.4z M4.3,65.2h0.6v-2.9c0-1-0.8-1.8-1.8-1.8c-0.9,0-1.4,0.5-1.6,0.8l-0.2,0.3v-3.1H0.6v6.6h0.6v-2.6 c0-0.8,0.7-1.5,1.6-1.5c0.8,0,1.5,0.6,1.5,1.5L4.3,65.2L4.3,65.2z"></path></g><g><path d="M8.4,65.4c1.4,0,2.5-1.1,2.5-2.5c0-1.4-1.1-2.5-2.5-2.5C7,60.4,6,61.5,6,62.9C6,64.3,7,65.4,8.4,65.4z M8.4,61.2 c1,0,1.7,0.7,1.7,1.7s-0.7,1.7-1.7,1.7c-0.9,0-1.7-0.7-1.7-1.7S7.5,61.2,8.4,61.2z"></path><path d="M8.4,65.5c-1.5,0-2.6-1.1-2.6-2.6c0-1.5,1.1-2.6,2.6-2.6c1.5,0,2.6,1.1,2.6,2.6C11,64.4,9.9,65.5,8.4,65.5z M8.4,60.5 c-1.4,0-2.4,1-2.4,2.4c0,1.4,1,2.4,2.4,2.4c1.4,0,2.4-1,2.4-2.4C10.8,61.5,9.8,60.5,8.4,60.5z M8.4,64.7c-1,0-1.8-0.8-1.8-1.8 s0.8-1.8,1.8-1.8c1,0,1.8,0.8,1.8,1.8S9.4,64.7,8.4,64.7z M8.4,61.3c-0.9,0-1.6,0.7-1.6,1.6s0.7,1.6,1.6,1.6c0.9,0,1.6-0.7,1.6-1.6 S9.3,61.3,8.4,61.3z"></path></g><g><rect x="11.9" y="58.4" width="0.8" height="6.8"></rect><path d="M12.8,65.4h-1v-7h1V65.4z M12,65.2h0.6v-6.6H12V65.2z"></path></g><g><path d="M13.8,62.9c0,1.4,1.1,2.5,2.5,2.5c1.4,0,2.5-1.1,2.5-2.5s-1.1-2.5-2.5-2.5C14.8,60.4,13.8,61.5,13.8,62.9z M16.2,61.2 c1,0,1.7,0.7,1.7,1.7s-0.7,1.7-1.7,1.7c-0.9,0-1.7-0.7-1.7-1.7S15.3,61.2,16.2,61.2z"></path><path d="M16.2,65.5c-1.5,0-2.6-1.1-2.6-2.6c0-1.5,1.1-2.6,2.6-2.6c1.5,0,2.6,1.1,2.6,2.6C18.8,64.4,17.7,65.5,16.2,65.5z M16.2,60.5c-1.4,0-2.4,1-2.4,2.4c0,1.4,1,2.4,2.4,2.4c1.4,0,2.4-1,2.4-2.4C18.6,61.5,17.6,60.5,16.2,60.5z M16.2,64.7 c-1,0-1.8-0.8-1.8-1.8s0.8-1.8,1.8-1.8c1,0,1.8,0.8,1.8,1.8S17.2,64.7,16.2,64.7z M16.2,61.3c-0.9,0-1.6,0.7-1.6,1.6 s0.7,1.6,1.6,1.6c0.9,0,1.6-0.7,1.6-1.6S17.1,61.3,16.2,61.3z"></path></g><g><path d="M22,61.2c0.7,0,1.2,0.3,1.5,0.9l0.8-0.2C23.8,61,23,60.4,22,60.4c-1.4,0-2.5,1.1-2.5,2.5c0,1.4,1.1,2.5,2.5,2.5 c1,0,1.9-0.6,2.3-1.4l-0.8-0.2c-0.3,0.5-0.8,0.9-1.5,0.9c-0.9,0-1.7-0.7-1.7-1.7C20.3,61.9,21,61.2,22,61.2z"></path><path d="M22,65.5c-1.5,0-2.6-1.1-2.6-2.6c0-1.5,1.1-2.6,2.6-2.6c1,0,1.9,0.6,2.3,1.5l0,0.1l-1,0.3l0-0.1c-0.3-0.5-0.8-0.8-1.4-0.8 c-0.9,0-1.6,0.7-1.6,1.6s0.7,1.6,1.6,1.6c0.6,0,1.1-0.3,1.4-0.8l0-0.1l1,0.3l0,0.1C23.9,64.9,23,65.5,22,65.5z M22,60.5 c-1.4,0-2.4,1-2.4,2.4c0,1.4,1,2.4,2.4,2.4c0.9,0,1.7-0.5,2.1-1.3l-0.6-0.2c-0.3,0.6-0.9,0.9-1.5,0.9c-1,0-1.8-0.8-1.8-1.8 s0.8-1.8,1.8-1.8c0.7,0,1.2,0.3,1.5,0.9l0.6-0.2C23.7,61,22.9,60.5,22,60.5z"></path></g><g><path d="M29,61.2c-0.4-0.5-1-0.8-1.7-0.8c-1.3,0-2.3,1.1-2.3,2.5c0,1.4,1,2.5,2.3,2.5c0.7,0,1.3-0.3,1.7-0.8v0.7h0.8v-4.7H29V61.2z M27.4,64.6c-0.9,0-1.6-0.7-1.6-1.7s0.7-1.7,1.6-1.7c0.9,0,1.6,0.7,1.6,1.7C29,63.9,28.3,64.6,27.4,64.6z"></path><path d="M27.3,65.5c-1.4,0-2.4-1.1-2.4-2.6c0-1.5,1-2.6,2.4-2.6c0.6,0,1.2,0.2,1.6,0.6v-0.5h1v4.9h-1v-0.5 C28.5,65.2,27.9,65.5,27.3,65.5z M27.3,60.5c-1.3,0-2.2,1-2.2,2.4c0,1.4,1,2.4,2.2,2.4c0.7,0,1.2-0.3,1.7-0.7l0.2-0.2v0.8h0.6v-4.5 h-0.6v0.8l-0.2-0.2C28.5,60.8,27.9,60.5,27.3,60.5z M27.4,64.7c-1,0-1.7-0.8-1.7-1.8s0.7-1.8,1.7-1.8c1,0,1.7,0.8,1.7,1.8 S28.4,64.7,27.4,64.7z M27.4,61.3c-0.9,0-1.5,0.7-1.5,1.6s0.7,1.6,1.5,1.6c0.9,0,1.5-0.7,1.5-1.6S28.2,61.3,27.4,61.3z"></path></g><g><path d="M35.4,65.3v-4.7h-0.8v2.7c0,0.8-0.6,1.4-1.5,1.4c-0.8,0-1.4-0.6-1.4-1.4v-2.7h-0.8v3c0,1.1,0.8,1.9,1.9,1.9 c1,0,1.5-0.5,1.7-0.9v0.8H35.4L35.4,65.3z"></path><path d="M33,65.5c-1.1,0-2-0.9-2-2v-3h1v2.8c0,0.7,0.5,1.3,1.3,1.3c0.8,0,1.4-0.5,1.4-1.3v-2.8h1v4.9h-1v-0.6 C34.3,65.1,33.8,65.5,33,65.5z M31.2,60.6v2.9c0,1,0.8,1.8,1.8,1.8c0.9,0,1.4-0.5,1.6-0.8l0.2-0.3v1h0.6v-4.5h-0.6v2.6 c0,0.8-0.7,1.5-1.6,1.5c-0.8,0-1.5-0.6-1.5-1.5v-2.6L31.2,60.6L31.2,60.6z"></path></g><g><path d="M38.3,64.7c-0.6,0-1-0.3-1.1-0.7l-0.7,0.1c0.1,0.7,0.8,1.2,1.8,1.2c1,0,1.8-0.5,1.8-1.4c0-0.6-0.3-1-1.1-1.3l-1.2-0.4 c-0.3-0.1-0.5-0.3-0.5-0.6c0-0.4,0.4-0.6,0.9-0.6c0.6,0,0.9,0.2,1,0.6l0.7-0.1c-0.1-0.7-0.7-1.1-1.7-1.1c-0.9,0-1.7,0.4-1.7,1.3 c0,0.6,0.3,1,1,1.2l1.1,0.4c0.4,0.1,0.6,0.4,0.6,0.6C39.3,64.4,38.8,64.7,38.3,64.7z"></path><path d="M38.2,65.5c-1,0-1.8-0.5-1.9-1.3l0-0.1l0.9-0.2l0,0.1c0.1,0.4,0.5,0.6,1,0.6c0.5,0,0.9-0.2,0.9-0.6c0-0.2-0.2-0.4-0.6-0.6 l-1.1-0.4c-0.7-0.2-1.1-0.7-1.1-1.3c0-0.9,0.7-1.4,1.8-1.4c1,0,1.6,0.5,1.8,1.2l0,0.1l-0.9,0.2l0-0.1c-0.1-0.3-0.4-0.5-0.9-0.5 c-0.5,0-0.8,0.2-0.8,0.5c0,0.2,0.1,0.4,0.4,0.5l1.2,0.4c0.8,0.3,1.1,0.7,1.1,1.4C40.1,64.9,39.4,65.5,38.2,65.5z M36.5,64.2 c0.2,0.7,0.8,1.1,1.7,1.1c0.8,0,1.7-0.3,1.7-1.3c0-0.6-0.3-0.9-1-1.2l-1.2-0.4c-0.4-0.1-0.6-0.4-0.6-0.6c0-0.4,0.4-0.7,1-0.7 c0.5,0,0.9,0.2,1.1,0.6l0.5-0.1c-0.2-0.6-0.7-1-1.6-1c-0.8,0-1.6,0.3-1.6,1.2c0,0.5,0.3,0.9,0.9,1.1l1.1,0.4 c0.5,0.2,0.7,0.4,0.7,0.7c0,0.5-0.5,0.8-1.1,0.8c-0.6,0-1.1-0.3-1.2-0.7L36.5,64.2z"></path></g><g><path d="M42.1,59.6h-0.8v0.9h-0.8v0.7h0.8v2.7c0,0.8,0.6,1.4,1.4,1.4h0.7v-0.7h-0.6c-0.4,0-0.7-0.3-0.7-0.7v-2.6h1.3v-0.7h-1.3 L42.1,59.6L42.1,59.6z"></path><path d="M43.5,65.4h-0.8c-0.9,0-1.5-0.6-1.5-1.5v-2.6h-0.8v-0.9h0.8v-0.9h1v0.9h1.3v0.9h-1.3v2.5c0,0.4,0.2,0.6,0.6,0.6h0.7 L43.5,65.4L43.5,65.4z M40.6,61.1h0.8v2.8c0,0.7,0.6,1.3,1.3,1.3h0.6v-0.5h-0.5c-0.4,0-0.8-0.4-0.8-0.8v-2.7h1.3v-0.5H42v-0.9h-0.6 v0.9h-0.8L40.6,61.1L40.6,61.1z"></path></g><g><path d="M48.9,65.4c0.7,0,1.3-0.3,1.7-0.8v0.7h0.8v-4.7h-0.8v0.7c-0.4-0.5-1-0.8-1.7-0.8c-1.3,0-2.3,1.1-2.3,2.5 S47.6,65.4,48.9,65.4z M49,61.2c0.9,0,1.6,0.7,1.6,1.7s-0.7,1.7-1.6,1.7c-0.9,0-1.6-0.7-1.6-1.7C47.4,61.9,48.1,61.2,49,61.2z"></path><path d="M48.9,65.5c-1.4,0-2.4-1.1-2.4-2.6c0-1.5,1-2.6,2.4-2.6c0.6,0,1.2,0.2,1.6,0.6v-0.5h1v4.9h-1v-0.5 C50.1,65.2,49.6,65.5,48.9,65.5z M48.9,60.5c-1.3,0-2.2,1-2.2,2.4c0,1.4,1,2.4,2.2,2.4c0.7,0,1.2-0.3,1.7-0.7l0.2-0.2v0.8h0.6v-4.5 h-0.6v0.8l-0.2-0.2C50.2,60.8,49.6,60.5,48.9,60.5z M49,64.7c-1,0-1.7-0.8-1.7-1.8s0.7-1.8,1.7-1.8c1,0,1.7,0.8,1.7,1.8 S50,64.7,49,64.7z M49,61.3c-0.9,0-1.5,0.7-1.5,1.6s0.7,1.6,1.5,1.6c0.9,0,1.5-0.7,1.5-1.6S49.9,61.3,49,61.3z"></path></g><g><path d="M55.2,60.4c-1,0-1.5,0.6-1.7,0.9v-0.8h-0.8v4.7h0.8v-2.7c0-0.8,0.6-1.4,1.5-1.4c0.8,0,1.3,0.6,1.3,1.4v2.7h0.8v-3 C57.1,61.2,56.3,60.4,55.2,60.4z"></path><path d="M57.2,65.4h-1v-2.8c0-0.7-0.5-1.3-1.2-1.3c-0.8,0-1.4,0.6-1.4,1.3v2.8h-1v-4.9h1V61c0.3-0.4,0.8-0.7,1.6-0.7 c1.1,0,2,0.9,2,2L57.2,65.4L57.2,65.4z M56.4,65.2H57v-2.9c0-1-0.8-1.8-1.8-1.8c-0.9,0-1.4,0.5-1.6,0.8l-0.2,0.3v-1h-0.6v4.5h0.6 v-2.6c0-0.8,0.7-1.5,1.6-1.5c0.8,0,1.4,0.6,1.4,1.5L56.4,65.2L56.4,65.2z"></path></g><g><path d="M62.2,61.2c-0.4-0.5-1-0.8-1.7-0.8c-1.3,0-2.3,1.1-2.3,2.5c0,1.4,1,2.5,2.3,2.5c0.7,0,1.3-0.3,1.7-0.8v0.7h0.8v-6.8h-0.8 V61.2z M60.5,64.6c-0.9,0-1.6-0.7-1.6-1.7s0.7-1.7,1.6-1.7c0.9,0,1.6,0.7,1.6,1.7C62.1,63.9,61.4,64.6,60.5,64.6z"></path><path d="M60.4,65.5c-1.4,0-2.4-1.1-2.4-2.6c0-1.5,1-2.6,2.4-2.6c0.6,0,1.2,0.2,1.6,0.6v-2.6h1v7h-1v-0.5 C61.6,65.2,61.1,65.5,60.4,65.5z M60.4,60.5c-1.3,0-2.2,1-2.2,2.4c0,1.4,1,2.4,2.2,2.4c0.7,0,1.2-0.3,1.7-0.7l0.2-0.2v0.8h0.6v-6.6 h-0.6v2.9l-0.2-0.2C61.7,60.8,61.1,60.5,60.4,60.5z M60.5,64.7c-1,0-1.7-0.8-1.7-1.8s0.7-1.8,1.7-1.8c1,0,1.7,0.8,1.7,1.8 S61.5,64.7,60.5,64.7z M60.5,61.3c-0.9,0-1.5,0.7-1.5,1.6s0.7,1.6,1.5,1.6c0.9,0,1.5-0.7,1.5-1.6S61.4,61.3,60.5,61.3z"></path></g><g><path d="M4.4,72.7c-0.4-0.5-1-0.8-1.7-0.8c-1.3,0-2.3,1.1-2.3,2.5s1,2.5,2.3,2.5c0.7,0,1.3-0.3,1.7-0.8v0.5c0,0.9-0.7,1.6-1.7,1.6 c-0.6,0-1.1-0.3-1.4-0.7l-0.8,0.2c0.4,0.7,1.2,1.2,2.2,1.2c1.3,0,2.4-1,2.4-2.3V72H4.4V72.7z M2.7,76.1c-0.9,0-1.6-0.7-1.6-1.7 c0-1,0.7-1.7,1.6-1.7c0.9,0,1.6,0.7,1.6,1.7C4.3,75.4,3.6,76.1,2.7,76.1z"></path><path d="M2.7,79c-1,0-1.9-0.5-2.3-1.3l-0.1-0.1l1-0.3l0,0.1C1.6,77.8,2.2,78,2.7,78c0.5,0,0.9-0.2,1.1-0.5c0.3-0.3,0.4-0.6,0.4-1 v-0.2c-0.4,0.4-1,0.6-1.6,0.6c-1.4,0-2.4-1.1-2.4-2.6c0-1.5,1-2.6,2.4-2.6c0.6,0,1.2,0.2,1.6,0.6v-0.5h1v4.6 C5.2,77.9,4.1,79,2.7,79z M0.7,77.7c0.4,0.6,1.2,1.1,2,1.1c1.3,0,2.3-1,2.3-2.2v-4.4H4.5V73l-0.2-0.2c-0.4-0.5-1-0.7-1.7-0.7 c-1.3,0-2.2,1-2.2,2.4c0,1.4,1,2.4,2.2,2.4c0.7,0,1.2-0.3,1.7-0.7l0.2-0.2v0.7c0,0.4-0.2,0.9-0.5,1.2c-0.3,0.3-0.8,0.5-1.3,0.5 c-0.6,0-1.1-0.3-1.4-0.7L0.7,77.7z M2.7,76.2c-1,0-1.7-0.8-1.7-1.8c0-1,0.7-1.8,1.7-1.8c1,0,1.7,0.8,1.7,1.8 C4.4,75.4,3.7,76.2,2.7,76.2z M2.7,72.8c-0.9,0-1.5,0.7-1.5,1.6c0,0.9,0.7,1.6,1.5,1.6c0.9,0,1.5-0.7,1.5-1.6 C4.2,73.5,3.6,72.8,2.7,72.8z"></path></g><g><path d="M8.6,71.9c-1.4,0-2.4,1.1-2.4,2.5c0,1.4,1.1,2.5,2.5,2.5c0.9,0,1.7-0.5,2.2-1.2l-0.7-0.2c-0.3,0.4-0.8,0.7-1.4,0.7 c-0.9,0-1.6-0.6-1.7-1.5H11c0-0.1,0-0.2,0-0.3C11,73,10,71.9,8.6,71.9z M7,74c0.1-0.8,0.8-1.4,1.6-1.4c0.8,0,1.5,0.6,1.7,1.4H7z"></path><path d="M8.7,76.9c-1.5,0-2.6-1.1-2.6-2.6c0-1.5,1.1-2.6,2.5-2.6c1.4,0,2.5,1.1,2.5,2.6c0,0.1,0,0.2,0,0.2l0,0.1l-0.1,0h-4 C7.2,75.5,7.9,76,8.7,76c0.5,0,1-0.2,1.3-0.6l0-0.1l0.9,0.3l-0.1,0.1C10.5,76.5,9.6,76.9,8.7,76.9z M8.6,72c-1.3,0-2.3,1-2.3,2.4 c0,1.4,1,2.4,2.4,2.4c0.8,0,1.6-0.4,2-1l-0.6-0.2c-0.3,0.4-0.9,0.7-1.4,0.7c-1,0-1.7-0.6-1.8-1.6l0-0.1h4.1c0-0.1,0-0.1,0-0.2 C10.9,73,9.9,72,8.6,72z M10.4,74.1H6.8l0-0.1c0.2-0.9,0.9-1.5,1.7-1.5c0.9,0,1.6,0.6,1.8,1.5L10.4,74.1z M7.1,73.9h3 c-0.2-0.7-0.8-1.2-1.5-1.2C7.9,72.7,7.3,73.2,7.1,73.9z"></path></g><g><path d="M14.5,71.9c-1,0-1.5,0.6-1.7,0.9V72H12v4.7h0.8V74c0-0.8,0.6-1.4,1.5-1.4c0.8,0,1.3,0.6,1.3,1.4v2.7h0.8v-3 C16.4,72.7,15.6,71.9,14.5,71.9z"></path><path d="M16.5,76.8h-1V74c0-0.7-0.5-1.3-1.2-1.3c-0.8,0-1.4,0.6-1.4,1.3v2.8h-1v-4.9h1v0.6c0.3-0.4,0.8-0.7,1.6-0.7 c1.1,0,2,0.9,2,2C16.5,73.8,16.5,76.8,16.5,76.8z M15.7,76.6h0.6v-2.9c0-1-0.8-1.8-1.8-1.8c-0.9,0-1.4,0.5-1.6,0.8l-0.2,0.3v-1 h-0.6v4.5h0.6V74c0-0.8,0.7-1.5,1.6-1.5c0.8,0,1.4,0.6,1.4,1.5C15.7,74,15.7,76.6,15.7,76.6z"></path></g><g><path d="M19.9,71.9c-1.4,0-2.5,1.1-2.5,2.5c0,1.4,1.1,2.5,2.5,2.5c1.4,0,2.5-1.1,2.5-2.5C22.3,73,21.3,71.9,19.9,71.9z M19.9,76.1 c-0.9,0-1.7-0.7-1.7-1.7c0-1,0.7-1.7,1.7-1.7c1,0,1.7,0.7,1.7,1.7C21.6,75.4,20.8,76.1,19.9,76.1z"></path><path d="M19.9,76.9c-1.5,0-2.6-1.1-2.6-2.6c0-1.5,1.1-2.6,2.6-2.6c1.5,0,2.6,1.1,2.6,2.6C22.4,75.8,21.3,76.9,19.9,76.9z M19.9,72 c-1.4,0-2.4,1-2.4,2.4c0,1.4,1,2.4,2.4,2.4c1.4,0,2.4-1,2.4-2.4C22.3,73,21.2,72,19.9,72z M19.9,76.2c-1,0-1.8-0.8-1.8-1.8 c0-1,0.8-1.8,1.8-1.8c1,0,1.8,0.8,1.8,1.8C21.7,75.4,20.9,76.2,19.9,76.2z M19.9,72.8c-0.9,0-1.6,0.7-1.6,1.6 c0,0.9,0.7,1.6,1.6,1.6c0.9,0,1.6-0.7,1.6-1.6C21.5,73.5,20.8,72.8,19.9,72.8z"></path></g><g><path d="M25.6,72.7c0.7,0,1.2,0.3,1.5,0.9l0.8-0.2c-0.4-0.9-1.2-1.4-2.3-1.4c-1.4,0-2.5,1.1-2.5,2.5s1.1,2.5,2.5,2.5 c1,0,1.9-0.6,2.3-1.4l-0.8-0.2c-0.3,0.5-0.8,0.9-1.5,0.9c-0.9,0-1.7-0.7-1.7-1.7C23.9,73.4,24.7,72.7,25.6,72.7z"></path><path d="M25.6,76.9c-1.5,0-2.6-1.1-2.6-2.6c0-1.5,1.1-2.6,2.6-2.6c1,0,1.9,0.6,2.3,1.5l0,0.1l-1,0.3l0-0.1 c-0.3-0.5-0.8-0.8-1.4-0.8c-0.9,0-1.6,0.7-1.6,1.6c0,0.9,0.7,1.6,1.6,1.6c0.6,0,1.1-0.3,1.4-0.8l0-0.1l1,0.3l0,0.1 C27.6,76.4,26.7,76.9,25.6,76.9z M25.6,72c-1.4,0-2.4,1-2.4,2.4c0,1.4,1,2.4,2.4,2.4c0.9,0,1.7-0.5,2.1-1.3l-0.6-0.2 c-0.3,0.6-0.9,0.9-1.5,0.9c-1,0-1.8-0.8-1.8-1.8s0.8-1.8,1.8-1.8c0.7,0,1.2,0.3,1.5,0.9l0.6-0.2C27.3,72.5,26.6,72,25.6,72z"></path></g><g><path d="M29.2,70.3c-0.3,0-0.5,0.2-0.5,0.5s0.2,0.5,0.5,0.5s0.5-0.2,0.5-0.5S29.5,70.3,29.2,70.3z"></path><path d="M29.2,71.5c-0.4,0-0.6-0.3-0.6-0.6c0-0.4,0.3-0.6,0.6-0.6s0.6,0.3,0.6,0.6S29.6,71.5,29.2,71.5z M29.2,70.4 c-0.2,0-0.4,0.2-0.4,0.4c0,0.2,0.2,0.4,0.4,0.4c0.2,0,0.4-0.2,0.4-0.4C29.7,70.6,29.5,70.4,29.2,70.4z"></path></g><g><rect x="28.9" y="72" width="0.8" height="4.7"></rect><path d="M29.7,76.8h-1v-4.9h1V76.8z M29,76.6h0.6v-4.5H29V76.6z"></path></g><g><path d="M34.7,72.7c-0.4-0.5-1-0.8-1.7-0.8c-1.3,0-2.3,1.1-2.3,2.5s1,2.5,2.3,2.5c0.7,0,1.3-0.3,1.7-0.8v0.7h0.8v-6.8h-0.8V72.7z M33.1,76.1c-0.9,0-1.6-0.7-1.6-1.7c0-1,0.7-1.7,1.6-1.7c0.9,0,1.6,0.7,1.6,1.7S34,76.1,33.1,76.1z"></path><path d="M33,76.9c-1.4,0-2.4-1.1-2.4-2.6c0-1.5,1-2.6,2.4-2.6c0.6,0,1.2,0.2,1.6,0.6v-2.6h1v7h-1v-0.5C34.2,76.7,33.6,76.9,33,76.9 z M33,72c-1.3,0-2.2,1-2.2,2.4c0,1.4,1,2.4,2.2,2.4c0.7,0,1.2-0.3,1.7-0.7l0.2-0.2v0.8h0.6V70h-0.6v2.9l-0.2-0.2 C34.2,72.3,33.7,72,33,72z M33.1,76.2c-1,0-1.7-0.8-1.7-1.8c0-1,0.7-1.8,1.7-1.8c1,0,1.7,0.8,1.7,1.8 C34.8,75.4,34.1,76.2,33.1,76.2z M33.1,72.8c-0.9,0-1.5,0.7-1.5,1.6c0,0.9,0.7,1.6,1.5,1.6c0.9,0,1.5-0.7,1.5-1.6 C34.6,73.5,34,72.8,33.1,72.8z"></path></g><g><path d="M39,71.9c-1.4,0-2.4,1.1-2.4,2.5c0,1.4,1.1,2.5,2.5,2.5c0.9,0,1.7-0.5,2.2-1.2l-0.7-0.2c-0.3,0.4-0.8,0.7-1.4,0.7 c-0.9,0-1.6-0.6-1.7-1.5h4.1c0-0.1,0-0.2,0-0.3C41.4,73,40.4,71.9,39,71.9z M37.3,74c0.1-0.8,0.8-1.4,1.6-1.4 c0.8,0,1.5,0.6,1.7,1.4H37.3z"></path><path d="M39.1,76.9c-1.5,0-2.6-1.1-2.6-2.6c0-1.5,1.1-2.6,2.5-2.6c1.4,0,2.5,1.1,2.5,2.6c0,0.1,0,0.2,0,0.2l0,0.1l-0.1,0h-4 c0.2,0.8,0.8,1.3,1.6,1.3c0.5,0,1-0.2,1.3-0.6l0-0.1l0.9,0.3l-0.1,0.1C40.8,76.5,40,76.9,39.1,76.9z M39,72c-1.3,0-2.3,1-2.3,2.4 c0,1.4,1,2.4,2.4,2.4c0.8,0,1.6-0.4,2-1l-0.6-0.2c-0.3,0.4-0.9,0.7-1.4,0.7c-1,0-1.7-0.6-1.8-1.6l0-0.1h4.1c0-0.1,0-0.1,0-0.2 C41.3,73,40.3,72,39,72z M40.8,74.1h-3.5l0-0.1c0.2-0.9,0.9-1.5,1.7-1.5c0.9,0,1.6,0.6,1.8,1.5L40.8,74.1z M37.5,73.9h3 c-0.2-0.7-0.8-1.2-1.5-1.2C38.2,72.7,37.6,73.2,37.5,73.9z"></path></g><g><path d="M47.1,74.2L46,73.8c-0.3-0.1-0.5-0.3-0.5-0.6c0-0.4,0.4-0.6,0.9-0.6c0.6,0,0.9,0.2,1,0.6l0.7-0.1c-0.1-0.7-0.7-1.1-1.7-1.1 c-0.9,0-1.7,0.4-1.7,1.3c0,0.6,0.3,1,1,1.2l1.1,0.4c0.4,0.1,0.6,0.4,0.6,0.6c0,0.4-0.5,0.7-1,0.7c-0.6,0-1-0.3-1.1-0.7l-0.7,0.1 c0.1,0.7,0.8,1.2,1.8,1.2c1,0,1.8-0.5,1.8-1.4C48.2,74.9,47.9,74.4,47.1,74.2z"></path><path d="M46.4,76.9c-1,0-1.8-0.5-1.9-1.3l0-0.1l0.9-0.2l0,0.1c0.1,0.4,0.5,0.6,1,0.6c0.5,0,0.9-0.2,0.9-0.6c0-0.2-0.2-0.4-0.6-0.6 l-1.1-0.4c-0.7-0.2-1.1-0.7-1.1-1.3c0-0.9,0.7-1.4,1.8-1.4c1,0,1.6,0.5,1.8,1.2l0,0.1l-0.9,0.2l0-0.1c-0.1-0.3-0.4-0.5-0.9-0.5 c-0.5,0-0.8,0.2-0.8,0.5c0,0.2,0.1,0.4,0.4,0.5l1.2,0.4c0.8,0.3,1.1,0.7,1.1,1.4C48.3,76.4,47.6,76.9,46.4,76.9z M44.7,75.7 c0.2,0.7,0.8,1.1,1.7,1.1c0.8,0,1.7-0.3,1.7-1.3c0-0.6-0.3-0.9-1-1.2l-1.2-0.4c-0.4-0.1-0.6-0.4-0.6-0.6c0-0.4,0.4-0.7,1-0.7 c0.5,0,0.9,0.2,1.1,0.6L48,73c-0.2-0.6-0.7-1-1.6-1c-0.8,0-1.6,0.3-1.6,1.2c0,0.5,0.3,0.9,0.9,1.1l1.1,0.4c0.5,0.2,0.7,0.4,0.7,0.7 c0,0.5-0.5,0.8-1.1,0.8c-0.6,0-1.1-0.3-1.2-0.7L44.7,75.7z"></path></g><g><path d="M50.3,71.1h-0.8V72h-0.8v0.7h0.8v2.7c0,0.8,0.6,1.4,1.4,1.4h0.7V76h-0.6c-0.4,0-0.7-0.3-0.7-0.7v-2.6h1.3V72h-1.3 L50.3,71.1L50.3,71.1z"></path><path d="M51.7,76.8h-0.8c-0.9,0-1.5-0.6-1.5-1.5v-2.6h-0.8v-0.9h0.8V71h1v0.9h1.3v0.9h-1.3v2.5c0,0.4,0.2,0.6,0.6,0.6h0.7 L51.7,76.8L51.7,76.8z M48.8,72.6h0.8v2.8c0,0.7,0.6,1.3,1.3,1.3h0.6v-0.5h-0.5c-0.4,0-0.8-0.4-0.8-0.8v-2.7h1.3v-0.5h-1.3v-0.9 h-0.6v0.9h-0.8L48.8,72.6L48.8,72.6z"></path></g><g><path d="M56.1,74.7c0,0.8-0.6,1.4-1.5,1.4c-0.8,0-1.4-0.6-1.4-1.4V72h-0.8v3c0,1.1,0.8,1.9,1.9,1.9c1,0,1.5-0.5,1.7-0.9v0.8h0.8V72 h-0.8L56.1,74.7L56.1,74.7z"></path><path d="M54.4,76.9c-1.1,0-2-0.9-2-2v-3h1v2.8c0,0.7,0.5,1.3,1.3,1.3c0.8,0,1.4-0.5,1.4-1.3v-2.8h1v4.9h-1v-0.6 C55.7,76.6,55.2,76.9,54.4,76.9z M52.6,72.1V75c0,1,0.8,1.8,1.8,1.8c0.9,0,1.4-0.5,1.6-0.8l0.2-0.3v1h0.6v-4.5h-0.6v2.6 c0,0.8-0.7,1.5-1.6,1.5c-0.8,0-1.5-0.6-1.5-1.5v-2.6L52.6,72.1L52.6,72.1z"></path></g><g><path d="M61.9,72.7c-0.4-0.5-1-0.8-1.7-0.8c-1.3,0-2.3,1.1-2.3,2.5s1,2.5,2.3,2.5c0.7,0,1.3-0.3,1.7-0.8v0.7h0.8v-6.8h-0.8V72.7z M60.3,76.1c-0.9,0-1.6-0.7-1.6-1.7c0-1,0.7-1.7,1.6-1.7c0.9,0,1.6,0.7,1.6,1.7S61.2,76.1,60.3,76.1z"></path><path d="M60.2,76.9c-1.4,0-2.4-1.1-2.4-2.6c0-1.5,1-2.6,2.4-2.6c0.6,0,1.2,0.2,1.6,0.6v-2.6h1v7h-1v-0.5 C61.4,76.7,60.8,76.9,60.2,76.9z M60.2,72c-1.3,0-2.2,1-2.2,2.4c0,1.4,1,2.4,2.2,2.4c0.7,0,1.2-0.3,1.7-0.7l0.2-0.2v0.8h0.6V70H62 v2.9l-0.2-0.2C61.5,72.3,60.9,72,60.2,72z M60.3,76.2c-1,0-1.7-0.8-1.7-1.8c0-1,0.7-1.8,1.7-1.8c1,0,1.7,0.8,1.7,1.8 C62,75.4,61.3,76.2,60.3,76.2z M60.3,72.8c-0.9,0-1.5,0.7-1.5,1.6c0,0.9,0.7,1.6,1.5,1.6c0.9,0,1.5-0.7,1.5-1.6 C61.8,73.5,61.2,72.8,60.3,72.8z"></path></g><g><path d="M64.4,70.3c-0.3,0-0.5,0.2-0.5,0.5s0.2,0.5,0.5,0.5c0.3,0,0.5-0.2,0.5-0.5S64.7,70.3,64.4,70.3z"></path><path d="M64.4,71.5c-0.4,0-0.6-0.3-0.6-0.6c0-0.4,0.3-0.6,0.6-0.6s0.6,0.3,0.6,0.6S64.7,71.5,64.4,71.5z M64.4,70.4 c-0.2,0-0.4,0.2-0.4,0.4c0,0.2,0.2,0.4,0.4,0.4c0.2,0,0.4-0.2,0.4-0.4C64.8,70.6,64.6,70.4,64.4,70.4z"></path></g><g><rect x="64" y="72" width="0.8" height="4.7"></rect><path d="M64.9,76.8h-1v-4.9h1V76.8z M64.1,76.6h0.6v-4.5h-0.6V76.6z"></path></g><g><path d="M68.3,71.9c-1.4,0-2.4,1.1-2.4,2.5c0,1.4,1.1,2.5,2.5,2.5c0.9,0,1.7-0.5,2.2-1.2l-0.7-0.2c-0.3,0.4-0.8,0.7-1.4,0.7 c-0.9,0-1.6-0.6-1.7-1.5h4.1c0-0.1,0-0.2,0-0.3C70.7,73,69.6,71.9,68.3,71.9z M66.6,74c0.1-0.8,0.8-1.4,1.6-1.4 c0.8,0,1.5,0.6,1.7,1.4H66.6z"></path><path d="M68.3,76.9c-1.5,0-2.6-1.1-2.6-2.6c0-1.5,1.1-2.6,2.5-2.6c1.4,0,2.5,1.1,2.5,2.6c0,0.1,0,0.2,0,0.3l0,0.1l-0.1,0h-4 c0.2,0.8,0.8,1.3,1.6,1.3c0.5,0,1-0.2,1.3-0.6l0-0.1l0.9,0.3l-0.1,0.1C70.1,76.5,69.3,76.9,68.3,76.9z M68.3,72 c-1.3,0-2.3,1-2.3,2.4c0,1.4,1,2.4,2.4,2.4c0.8,0,1.6-0.4,2-1l-0.6-0.2c-0.3,0.4-0.9,0.7-1.4,0.7c-1,0-1.7-0.6-1.8-1.6l0-0.1h4.1 c0-0.1,0-0.1,0-0.2C70.6,73,69.6,72,68.3,72z M70,74.1h-3.5l0-0.1c0.2-0.9,0.9-1.5,1.7-1.5c0.9,0,1.6,0.6,1.8,1.5L70,74.1z M66.7,73.9h3c-0.2-0.7-0.8-1.2-1.5-1.2C67.5,72.7,66.9,73.2,66.7,73.9z"></path></g><g><path d="M73.9,74.2l-1.2-0.4c-0.3-0.1-0.5-0.3-0.5-0.6c0-0.4,0.4-0.6,0.9-0.6c0.6,0,0.9,0.2,1,0.6l0.7-0.1 c-0.1-0.7-0.7-1.1-1.7-1.1c-0.9,0-1.7,0.4-1.7,1.3c0,0.6,0.3,1,1,1.2l1.1,0.4c0.4,0.1,0.6,0.4,0.6,0.6c0,0.4-0.5,0.7-1,0.7 c-0.6,0-1-0.3-1.1-0.7l-0.7,0.1c0.1,0.7,0.8,1.2,1.8,1.2c1,0,1.8-0.5,1.8-1.4C75,74.9,74.6,74.4,73.9,74.2z"></path><path d="M73.2,76.9c-1,0-1.8-0.5-1.9-1.3l0-0.1l0.9-0.2l0,0.1c0.1,0.4,0.5,0.6,1,0.6c0.5,0,0.9-0.2,0.9-0.6c0-0.2-0.2-0.4-0.6-0.6 l-1.1-0.4c-0.7-0.2-1.1-0.7-1.1-1.3c0-0.9,0.7-1.4,1.8-1.4c1,0,1.6,0.5,1.8,1.2l0,0.1l-0.9,0.2l0-0.1c-0.1-0.3-0.4-0.5-0.9-0.5 c-0.5,0-0.8,0.2-0.8,0.5c0,0.2,0.1,0.4,0.4,0.5l1.2,0.4c0.8,0.3,1.1,0.7,1.1,1.4C75.1,76.4,74.3,76.9,73.2,76.9z M71.5,75.7 c0.2,0.7,0.8,1.1,1.7,1.1c0.8,0,1.7-0.3,1.7-1.3c0-0.6-0.3-0.9-1-1.2l-1.2-0.4c-0.4-0.1-0.6-0.4-0.6-0.6c0-0.4,0.4-0.7,1-0.7 c0.5,0,0.9,0.2,1.1,0.6l0.5-0.1c-0.2-0.6-0.7-1-1.6-1c-0.8,0-1.6,0.3-1.6,1.2c0,0.5,0.3,0.9,0.9,1.1l1.1,0.4 c0.5,0.2,0.7,0.4,0.7,0.7c0,0.5-0.5,0.8-1.1,0.8c-0.6,0-1.1-0.3-1.2-0.7L71.5,75.7z"></path></g></g></svg>