<?xml version="1.0" encoding="UTF-8"?><svg id="Layer_1" xmlns="http://www.w3.org/2000/svg" viewBox="0 0 267.67 83.16"><defs><style>.cls-1{fill:#fff;stroke-width:0px;}</style></defs><ellipse class="cls-1" cx="35.41" cy="8.11" rx="5.38" ry="7.78" transform="translate(-.91 7.54) rotate(-12)"/><ellipse class="cls-1" cx="22.49" cy="13.86" rx="5.38" ry="7.78" transform="translate(-3.85 15.86) rotate(-36)"/><ellipse class="cls-1" cx="13.02" cy="24.37" rx="5.38" ry="7.78" transform="translate(-14.59 23.46) rotate(-60)"/><ellipse class="cls-1" cx="8.65" cy="37.82" rx="5.38" ry="7.78" transform="translate(-29.86 42.47) rotate(-84)"/><ellipse class="cls-1" cx="10.13" cy="51.88" rx="7.78" ry="5.38" transform="translate(-15.54 5.67) rotate(-18)"/><ellipse class="cls-1" cx="17.2" cy="64.13" rx="7.78" ry="5.38" transform="translate(-38.49 27.98) rotate(-42)"/><ellipse class="cls-1" cx="28.64" cy="72.44" rx="7.78" ry="5.38" transform="translate(-49.18 69.14) rotate(-66)"/><ellipse class="cls-1" cx="42.48" cy="75.38" rx="5.38" ry="7.78"/><ellipse class="cls-1" cx="34.77" cy="30.77" rx="5.38" ry="7.78" transform="translate(-11.44 26.31) rotate(-36)"/><ellipse class="cls-1" cx="30.01" cy="45.42" rx="7.78" ry="5.38" transform="translate(-12.57 11.5) rotate(-18)"/><ellipse class="cls-1" cx="42.48" cy="54.48" rx="5.38" ry="7.78"/><ellipse class="cls-1" cx="54.95" cy="45.42" rx="5.38" ry="7.78" transform="translate(-5.23 83.64) rotate(-72)"/><ellipse class="cls-1" cx="50.18" cy="30.77" rx="7.78" ry="5.38" transform="translate(-4.2 53.28) rotate(-54)"/><ellipse class="cls-1" cx="56.31" cy="72.44" rx="5.38" ry="7.78" transform="translate(-24.6 29.17) rotate(-24)"/><ellipse class="cls-1" cx="67.75" cy="64.13" rx="5.38" ry="7.78" transform="translate(-25.24 71.57) rotate(-48)"/><ellipse class="cls-1" cx="74.82" cy="51.88" rx="5.38" ry="7.78" transform="translate(2.36 107.01) rotate(-72)"/><ellipse class="cls-1" cx="76.3" cy="37.82" rx="7.78" ry="5.38" transform="translate(-3.53 8.18) rotate(-6)"/><ellipse class="cls-1" cx="71.93" cy="24.37" rx="7.78" ry="5.38" transform="translate(-2.55 39.23) rotate(-30)"/><ellipse class="cls-1" cx="62.47" cy="13.86" rx="7.78" ry="5.38" transform="translate(14.54 56.25) rotate(-54)"/><ellipse class="cls-1" cx="49.55" cy="8.11" rx="7.78" ry="5.38" transform="translate(31.32 54.88) rotate(-78)"/><path class="cls-1" d="M123.02,43.23c0,2.22-.37,4.29-1.1,6.2-.73,1.91-1.76,3.59-3.09,5.02-1.33,1.43-2.9,2.55-4.71,3.35-1.81.8-3.8,1.21-5.96,1.21s-4.11-.4-5.92-1.21c-1.81-.8-3.38-1.92-4.71-3.35-1.33-1.43-2.35-3.1-3.07-5.02-.72-1.91-1.07-3.98-1.07-6.2s.36-4.29,1.07-6.2c.72-1.91,1.74-3.59,3.07-5.02,1.33-1.43,2.9-2.55,4.71-3.35,1.81-.8,3.78-1.21,5.92-1.21s4.15.4,5.96,1.21c1.81.8,3.38,1.92,4.71,3.35,1.33,1.43,2.36,3.11,3.09,5.02.73,1.91,1.1,3.98,1.1,6.2ZM118.28,43.23c0-2.16-.43-4.11-1.29-5.83-.86-1.72-2.05-3.08-3.57-4.08-1.52-.99-3.27-1.49-5.26-1.49s-3.7.5-5.22,1.49c-1.52.99-2.7,2.35-3.55,4.05-.85,1.71-1.27,3.66-1.27,5.85s.42,4.11,1.27,5.83c.85,1.72,2.03,3.08,3.55,4.08,1.52.99,3.26,1.49,5.22,1.49s3.74-.5,5.26-1.49c1.52-.99,2.71-2.35,3.57-4.08.86-1.72,1.29-3.67,1.29-5.83Z"/><path class="cls-1" d="M139.99,59.01c-2.1,0-3.97-.29-5.61-.88-1.64-.58-3.2-1.55-4.69-2.89-.32-.23-.56-.52-.72-.85-.16-.34-.24-.68-.24-1.03,0-.55.2-1.05.61-1.49.41-.44.92-.66,1.53-.66.47,0,.91.16,1.32.48,1.11,1.02,2.27,1.8,3.49,2.32,1.21.53,2.64.79,4.27.79,1.17,0,2.24-.19,3.22-.57.98-.38,1.76-.89,2.35-1.53.58-.64.88-1.39.88-2.24,0-1.05-.3-1.92-.9-2.61-.6-.69-1.46-1.26-2.59-1.71-1.13-.45-2.48-.84-4.05-1.16-1.46-.26-2.77-.63-3.92-1.1-1.15-.47-2.14-1.06-2.96-1.78-.82-.72-1.45-1.57-1.88-2.56-.44-.99-.66-2.15-.66-3.46,0-1.78.47-3.32,1.4-4.6.94-1.29,2.21-2.28,3.81-2.98,1.61-.7,3.42-1.05,5.44-1.05,1.84,0,3.57.28,5.17.85,1.61.57,2.91,1.34,3.9,2.3.7.61,1.05,1.27,1.05,1.97,0,.53-.21,1.02-.64,1.47-.42.45-.91.68-1.47.68-.41,0-.76-.12-1.05-.35-.47-.5-1.1-.94-1.89-1.34-.79-.39-1.63-.72-2.52-.99-.89-.26-1.75-.39-2.56-.39-1.32,0-2.44.18-3.38.55-.94.37-1.65.86-2.15,1.49-.5.63-.75,1.37-.75,2.21,0,.99.28,1.81.85,2.45.57.64,1.37,1.16,2.39,1.56,1.02.39,2.19.75,3.51,1.07,1.61.35,3.05.75,4.32,1.18s2.35,1,3.22,1.69c.88.69,1.55,1.54,2.02,2.56.47,1.02.7,2.29.7,3.81,0,1.75-.5,3.29-1.49,4.6-.99,1.32-2.3,2.34-3.92,3.07-1.62.73-3.43,1.1-5.41,1.1Z"/><path class="cls-1" d="M179.38,29.64c.64.32,1.01.82,1.12,1.49.1.67-.07,1.29-.5,1.84-.32.44-.74.69-1.25.75-.51.06-1.02-.04-1.51-.31-.85-.44-1.74-.79-2.67-1.05-.94-.26-1.93-.39-2.98-.39-1.67,0-3.16.27-4.49.81-1.33.54-2.48,1.32-3.44,2.32s-1.7,2.2-2.21,3.57c-.51,1.37-.77,2.89-.77,4.56,0,1.84.28,3.47.83,4.89.55,1.42,1.32,2.62,2.3,3.59.98.98,2.13,1.71,3.46,2.19,1.33.48,2.77.72,4.32.72.99,0,1.97-.12,2.92-.35.95-.23,1.85-.58,2.7-1.05.53-.26,1.04-.36,1.56-.28.51.07.93.33,1.25.77.5.61.68,1.24.55,1.86-.13.63-.5,1.1-1.12,1.42-.73.41-1.53.76-2.41,1.05-.88.29-1.77.53-2.67.7-.91.18-1.83.26-2.76.26-2.1,0-4.09-.35-5.96-1.05-1.87-.7-3.54-1.72-5-3.07-1.46-1.34-2.61-3-3.44-4.95-.83-1.96-1.25-4.19-1.25-6.71,0-2.25.39-4.33,1.16-6.25.77-1.91,1.87-3.56,3.29-4.95,1.42-1.39,3.08-2.47,4.98-3.24,1.9-.77,3.97-1.16,6.22-1.16,1.4,0,2.77.18,4.1.53,1.33.35,2.56.85,3.7,1.49Z"/><path class="cls-1" d="M198.98,33.59l-9.86,23.67c-.18.47-.44.83-.79,1.1-.35.26-.75.39-1.18.39-.64,0-1.13-.18-1.45-.55-.32-.37-.5-.83-.53-1.38,0-.2.04-.44.13-.7l11.13-26.91c.2-.5.5-.88.9-1.14.39-.26.83-.38,1.29-.35.44,0,.85.13,1.23.39.38.26.66.63.83,1.1l11,26.52c.12.29.18.58.18.88,0,.64-.21,1.16-.64,1.56-.42.39-.9.59-1.42.59-.44,0-.84-.14-1.21-.42-.37-.28-.64-.64-.81-1.07l-9.95-23.54,1.14-.13ZM190.87,51.04l1.97-4.21h12.41l.75,4.21h-15.12Z"/><path class="cls-1" d="M220.07,58.58c-.7,0-1.31-.21-1.84-.64-.53-.42-.79-.96-.79-1.6v-26.21c0-.64.22-1.18.66-1.6.44-.42.96-.64,1.58-.64h12.36c1.58,0,3.02.39,4.34,1.16,1.32.77,2.37,1.84,3.18,3.2.8,1.36,1.21,2.91,1.21,4.67,0,1.17-.23,2.29-.7,3.35-.47,1.07-1.1,2.01-1.88,2.83-.79.82-1.68,1.43-2.67,1.84l-.48-.83c.91.32,1.69.78,2.37,1.38.67.6,1.21,1.3,1.6,2.1.39.8.61,1.72.64,2.74.09.91.17,1.66.24,2.26.07.6.18,1.09.33,1.47.15.38.41.67.79.88.53.29.85.73.99,1.32.13.58,0,1.11-.37,1.58-.26.35-.59.58-.99.68s-.8.12-1.21.04c-.41-.07-.76-.18-1.05-.33-.47-.29-.94-.71-1.42-1.25-.48-.54-.87-1.29-1.16-2.26-.29-.96-.44-2.24-.44-3.81,0-.73-.12-1.36-.35-1.88-.23-.53-.56-.96-.96-1.29-.41-.34-.89-.58-1.45-.75-.56-.16-1.17-.24-1.84-.24h-9.29l.61-.88v10.48c0,.64-.18,1.18-.53,1.6-.35.42-.83.64-1.45.64ZM221.48,42.93h10.48c.67-.03,1.32-.3,1.95-.81.63-.51,1.14-1.21,1.53-2.08.39-.88.59-1.87.59-2.98,0-1.4-.42-2.58-1.25-3.53-.83-.95-1.82-1.42-2.96-1.42h-10.26l.48-1.14v12.89l-.57-.92Z"/><path class="cls-1" d="M256.84,59.01c-2.1,0-3.97-.29-5.61-.88-1.64-.58-3.2-1.55-4.69-2.89-.32-.23-.56-.52-.72-.85-.16-.34-.24-.68-.24-1.03,0-.55.2-1.05.61-1.49.41-.44.92-.66,1.53-.66.47,0,.91.16,1.32.48,1.11,1.02,2.27,1.8,3.49,2.32,1.21.53,2.64.79,4.27.79,1.17,0,2.24-.19,3.22-.57.98-.38,1.76-.89,2.35-1.53.58-.64.88-1.39.88-2.24,0-1.05-.3-1.92-.9-2.61-.6-.69-1.46-1.26-2.59-1.71-1.13-.45-2.48-.84-4.05-1.16-1.46-.26-2.77-.63-3.92-1.1-1.15-.47-2.14-1.06-2.96-1.78-.82-.72-1.45-1.57-1.88-2.56-.44-.99-.66-2.15-.66-3.46,0-1.78.47-3.32,1.4-4.6.94-1.29,2.21-2.28,3.81-2.98,1.61-.7,3.42-1.05,5.44-1.05,1.84,0,3.57.28,5.17.85,1.61.57,2.91,1.34,3.9,2.3.7.61,1.05,1.27,1.05,1.97,0,.53-.21,1.02-.64,1.47-.42.45-.91.68-1.47.68-.41,0-.76-.12-1.05-.35-.47-.5-1.1-.94-1.89-1.34-.79-.39-1.63-.72-2.52-.99-.89-.26-1.75-.39-2.56-.39-1.32,0-2.44.18-3.38.55-.94.37-1.65.86-2.15,1.49-.5.63-.75,1.37-.75,2.21,0,.99.28,1.81.85,2.45.57.64,1.37,1.16,2.39,1.56,1.02.39,2.19.75,3.51,1.07,1.61.35,3.05.75,4.32,1.18s2.35,1,3.22,1.69c.88.69,1.55,1.54,2.02,2.56.47,1.02.7,2.29.7,3.81,0,1.75-.5,3.29-1.49,4.6-.99,1.32-2.3,2.34-3.92,3.07-1.62.73-3.43,1.1-5.41,1.1Z"/></svg>